<svg xmlns="http://www.w3.org/2000/svg" id="Layer_2" data-name="Layer 2" viewBox="0 0 380.35 191.16">
  <defs>
    <style>
      .cls-1 {
        fill: #202832;
      }

      .cls-1, .cls-2, .cls-3, .cls-4, .cls-5 {
        stroke-width: 0px;
      }

      .cls-2 {
        fill: #1d232c;
      }

      .cls-6 {
        stroke: #096;
      }

      .cls-6, .cls-7, .cls-8 {
        fill: none;
        stroke-miterlimit: 10;
        stroke-width: 8px;
      }

      .cls-3 {
        fill: #005e3c;
      }

      .cls-4 {
        fill: #096;
      }

      .cls-7 {
        stroke: #1d232c;
      }

      .cls-5 {
        fill: #1a202b;
      }

      .cls-8 {
        stroke: #1a202b;
      }
    </style>
  </defs>
  <g id="Layer_1-2" data-name="Layer 1">
    <polygon class="cls-1" points="149.34 138.26 149.34 188.59 178.67 188.59 154.78 138.26 149.34 138.26"/>
    <path class="cls-4" d="M310.89,91.7v46c-8.73,6.11-24.16,8.52-25.76,8.76-.12-2.24-.17-4.68-.13-7.31v-47.45h25.89Z"/>
    <path class="cls-2" d="M373.78,170.04c-12.67,22.11-41.44,21.11-41.44,21.11,0,0-28.78,1-41.45-21.11,0,0-4.88-6.19-5.76-23.58,1.6-.24,17.03-2.65,25.76-8.76v9.78s1.22,20,21.45,20.22c20.22-.22,22.11-19,22.11-19l-.67-57h25.89l.67,47.67c.33,23-6.56,30.67-6.56,30.67Z"/>
    <polygon class="cls-3" points="283.37 188.33 256.78 188.33 237.97 126.85 253.57 94.02 283.37 188.33"/>
    <polygon class="cls-2" points="172.82 94.6 160.93 127.02 160.71 126.56 144.56 126.56 113.37 175.44 105.89 175.44 71.97 122.04 55.74 106.93 60.26 101.96 21.08 64.63 27.52 58.18 62.78 91.7 83.5 91.7 110.72 135.04 138.56 91.7 171.39 91.7 172.82 94.6"/>
    <polygon class="cls-4" points="253.57 94.02 237.97 126.85 207 188.33 190.56 188.33 160.93 127.02 172.82 94.6 199.45 148.7 227.84 91.7 252.84 91.7 253.57 94.02"/>
    <polygon class="cls-5" points="21.52 103.96 41.08 117.81 41.15 188.33 66.86 188.33 66.86 130.11 39.45 105.44 25.74 96.04 21.52 103.96"/>
    <polygon class="cls-3" points="119.22 102.04 112.93 110.11 103.19 99.78 116.2 99.13 116.21 99.13 119.22 102.04"/>
    <polygon class="cls-4" points="116.2 99.13 103.19 99.78 97.67 93.93 50.45 48.93 57.11 42.15 116.2 99.13"/>
    <polygon class="cls-4" points="35.78 35.92 17.23 21.34 23.06 14.42 40.78 28.86 35.78 35.92"/>
    <polygon class="cls-4" points="102.78 48.59 118.51 68.2 125.56 62.92 108.12 41.48 102.78 48.59"/>
    <circle class="cls-6" cx="12.67" cy="12.67" r="8.67"/>
    <circle class="cls-6" cx="46.83" cy="37.63" r="8.77"/>
    <circle class="cls-7" cx="15.78" cy="54.32" r="9.07"/>
    <circle class="cls-8" cx="13.61" cy="95.69" r="9.07"/>
    <circle class="cls-6" cx="100.8" cy="38.08" r="9.22"/>
    <circle class="cls-6" cx="126.61" cy="72.61" r="9.22"/>
  </g>
</svg>
