<?xml version="1.0" encoding="utf-8"?>
<!-- Generator: Adobe Illustrator 26.0.3, SVG Export Plug-In . SVG Version: 6.00 Build 0)  -->
<svg version="1.1" xmlns="http://www.w3.org/2000/svg" xmlns:xlink="http://www.w3.org/1999/xlink" x="0px" y="0px"
     viewBox="0 0 112.43 112.7" style="enable-background:new 0 0 112.43 112.7;" xml:space="preserve">
<style type="text/css">
	.st0{fill:#19568C;}
	.st1{fill:#FFFFFF;}
	.st2{fill:#1F8BCB;}
	.st3{fill:#114578;}
</style>
    <g id="Layer_3">
</g>
    <g id="Layer_2">
	<g>
		<path class="st0" d="M94.08,103.17H20.32c-5.49,0-9.95-4.45-9.95-9.95V19.47c0-5.49,4.45-9.95,9.95-9.95h73.76
			c5.49,0,9.95,4.45,9.95,9.95v73.76C104.03,98.72,99.58,103.17,94.08,103.17z"/>
        <path class="st1" d="M23.81,36.37l32.83-14.94c0.1-0.05,0.22-0.05,0.32,0l33.49,14.94c0.3,0.14,0.31,0.57,0,0.7L56.86,52.39
			c-0.1,0.05-0.22,0.05-0.32,0L23.8,37.07C23.5,36.93,23.51,36.51,23.81,36.37z"/>
        <g>
			<path class="st1" d="M68.9,53.27v21.55c0,2.16,0.53,3.6,1.58,4.34c1.05,0.74,2.59,0.7,4.63-0.12s3.59-2.03,4.68-3.63
				c1.08-1.6,1.63-3.48,1.63-5.63V48.23l8.7-3.51v21.5c0,3.22-0.68,6.21-2.04,8.98c-1.36,2.77-3.18,5.18-5.47,7.24
				c-2.29,2.05-4.84,3.65-7.66,4.78c-2.82,1.14-5.33,1.6-7.55,1.38c-2.22-0.21-3.98-1.18-5.27-2.9c-1.29-1.72-1.93-4.19-1.93-7.4
				v-21.5L68.9,53.27z"/>
		</g>
        <g>
			<path class="st1" d="M46.48,57.31c2.72,2.75,4.83,5.82,6.32,9.22c1.49,3.4,2.24,6.88,2.24,10.43c0,3.52-0.75,6.31-2.24,8.36
				c-1.49,2.05-3.61,3.21-6.35,3.46c-2.74,0.25-5.91-0.44-9.52-2.09l-12.94-5.91V44.79l12.94,5.91
				C40.57,52.36,43.75,54.56,46.48,57.31z M43.82,79.53c1.77-1,2.66-3.16,2.66-6.48c0-3.31-0.89-6.3-2.66-8.96
				c-1.77-2.65-4.25-4.71-7.43-6.16l-3.99-1.82v20.92l3.99,1.82C39.57,80.3,42.05,80.53,43.82,79.53z"/>
		</g>
        <path class="st2" d="M50.5,28.28c0,0-5.99,5.71-1.76,9.53c6.31,5.68,20.69-3.82,19.56-8.6c0,0,0.34,0.34,0.21,1.26
			c-0.13,0.99-2.89,13.71-18.44,11.92C44.48,41.75,40.89,31.26,50.5,28.28z"/>
        <path class="st3" d="M43.63,42.73c0,0,13.04,5.02,25.7-5.92c0.88,0.14-8.3,13.93-25.18,6.59L43.63,42.73z"/>
	</g>
</g>
</svg>
