<?xml version="1.0" encoding="UTF-8"?>
<svg id="Layer_2" data-name="Layer 2" xmlns="http://www.w3.org/2000/svg" xmlns:xlink="http://www.w3.org/1999/xlink" viewBox="0 0 744.34 544.94">
  <defs>
    <style>
      .cls-1 {
        fill: rgba(255, 255, 255, .06);
      }

      .cls-1, .cls-2, .cls-3, .cls-4, .cls-5, .cls-6, .cls-7, .cls-8, .cls-9, .cls-10, .cls-11, .cls-12, .cls-13, .cls-14, .cls-15, .cls-16, .cls-17, .cls-18, .cls-19, .cls-20, .cls-21, .cls-22, .cls-23, .cls-24, .cls-25, .cls-26, .cls-27, .cls-28, .cls-29, .cls-30, .cls-31, .cls-32, .cls-33, .cls-34, .cls-35, .cls-36, .cls-37, .cls-38, .cls-39, .cls-40, .cls-41, .cls-42, .cls-43, .cls-44, .cls-45, .cls-46, .cls-47, .cls-48, .cls-49, .cls-50, .cls-51, .cls-52, .cls-53, .cls-54, .cls-55, .cls-56, .cls-57, .cls-58, .cls-59, .cls-60, .cls-61, .cls-62, .cls-63, .cls-64, .cls-65, .cls-66, .cls-67, .cls-68, .cls-69, .cls-70, .cls-71, .cls-72, .cls-73, .cls-74, .cls-75, .cls-76, .cls-77, .cls-78, .cls-79, .cls-80, .cls-81, .cls-82, .cls-83, .cls-84, .cls-85, .cls-86, .cls-87, .cls-88, .cls-89, .cls-90, .cls-91, .cls-92, .cls-93, .cls-94, .cls-95, .cls-96, .cls-97, .cls-98, .cls-99, .cls-100, .cls-101, .cls-102, .cls-103 {
        stroke-width: 0px;
      }

      .cls-1, .cls-2, .cls-3, .cls-4, .cls-5, .cls-6, .cls-7, .cls-8, .cls-9, .cls-10, .cls-11, .cls-12, .cls-13, .cls-14, .cls-15, .cls-16, .cls-17, .cls-18, .cls-19, .cls-20, .cls-21, .cls-22, .cls-23, .cls-24, .cls-25, .cls-26, .cls-27, .cls-28, .cls-29, .cls-31, .cls-32, .cls-33, .cls-34, .cls-35, .cls-36, .cls-37, .cls-38, .cls-40, .cls-41, .cls-42, .cls-43, .cls-44, .cls-45, .cls-46, .cls-47, .cls-48, .cls-49, .cls-50, .cls-51, .cls-52, .cls-53, .cls-54, .cls-55, .cls-56, .cls-58, .cls-59, .cls-61, .cls-62, .cls-63, .cls-64, .cls-65, .cls-66, .cls-67, .cls-68, .cls-69, .cls-70, .cls-72, .cls-73, .cls-74, .cls-76, .cls-77, .cls-79, .cls-80, .cls-81, .cls-82, .cls-83, .cls-84, .cls-85, .cls-86, .cls-87, .cls-88, .cls-89, .cls-90, .cls-92, .cls-93, .cls-94, .cls-95, .cls-96, .cls-98, .cls-99, .cls-100, .cls-102, .cls-103 {
        fill-rule: evenodd;
      }

      .cls-2, .cls-78 {
        fill: #fff;
      }

      .cls-3 {
        fill: #ffedc2;
      }

      .cls-104, .cls-105 {
        stroke-miterlimit: 4;
        stroke-width: 1px;
      }

      .cls-104, .cls-105, .cls-106, .cls-107, .cls-108, .cls-109, .cls-110, .cls-111, .cls-112 {
        fill: none;
        stroke-linecap: round;
      }

      .cls-104, .cls-112 {
        stroke: #f77b7b;
      }

      .cls-4 {
        fill: url(#linear-gradient-8);
      }

      .cls-5 {
        fill: #c2fff4;
      }

      .cls-6 {
        fill: url(#linear-gradient-11);
      }

      .cls-7 {
        fill: url(#linear-gradient-7);
      }

      .cls-8 {
        fill: #cef9ff;
        opacity: .41;
      }

      .cls-8, .cls-13, .cls-19, .cls-25, .cls-30, .cls-48, .cls-59, .cls-86 {
        isolation: isolate;
      }

      .cls-9 {
        fill: #877bff;
      }

      .cls-10 {
        fill: url(#linear-gradient-16);
      }

      .cls-11 {
        fill: #f28585;
      }

      .cls-12 {
        fill: #7569ec;
      }

      .cls-13 {
        opacity: .07;
      }

      .cls-13, .cls-19, .cls-59 {
        fill: #00cfe8;
      }

      .cls-105 {
        stroke: #de6767;
      }

      .cls-14, .cls-86 {
        fill: #c7c1ff;
      }

      .cls-15 {
        fill: url(#linear-gradient-9);
      }

      .cls-16 {
        fill: #e7fcff;
      }

      .cls-17 {
        fill: #4b4b4b;
      }

      .cls-18 {
        fill: #96effa;
      }

      .cls-19 {
        opacity: .07;
      }

      .cls-20 {
        fill: #bfe7ff;
      }

      .cls-21 {
        fill: rgba(0, 0, 0, .16);
      }

      .cls-22 {
        fill: #ffe4f4;
      }

      .cls-113 {
        mask: url(#mask-2);
      }

      .cls-23 {
        fill: url(#linear-gradient-18);
      }

      .cls-24 {
        fill: url(#linear-gradient-3);
      }

      .cls-25 {
        fill: #8c81ff;
        opacity: .58;
      }

      .cls-26, .cls-91 {
        fill: #8478ff;
      }

      .cls-27 {
        fill: #383838;
      }

      .cls-114 {
        mask: url(#mask-3);
      }

      .cls-28 {
        fill: rgba(142, 234, 246, .4);
      }

      .cls-29 {
        fill: #33373e;
      }

      .cls-30 {
        opacity: .08;
      }

      .cls-30, .cls-90 {
        fill: #7367f0;
      }

      .cls-106, .cls-110 {
        stroke: #5386bf;
      }

      .cls-31 {
        fill: #391b0b;
      }

      .cls-32 {
        fill: #2c272e;
      }

      .cls-33 {
        fill: #ea5455;
      }

      .cls-34 {
        fill: #413c75;
      }

      .cls-35 {
        fill: url(#linear-gradient-23);
      }

      .cls-36 {
        fill: rgba(142, 234, 246, .45);
      }

      .cls-37 {
        fill: #6a5ee3;
      }

      .cls-115 {
        mask: url(#mask-5);
      }

      .cls-38 {
        fill: #dbdbdb;
      }

      .cls-39 {
        fill: #eaefff;
      }

      .cls-40 {
        fill: #02d3af;
      }

      .cls-41 {
        fill: #91d6ff;
      }

      .cls-42 {
        fill: #d4efff;
      }

      .cls-43 {
        fill: url(#linear-gradient-17);
      }

      .cls-44 {
        fill: #222d4e;
      }

      .cls-45 {
        fill: url(#linear-gradient);
      }

      .cls-46 {
        fill: #ec7aa5;
      }

      .cls-47 {
        fill: url(#linear-gradient-13);
      }

      .cls-107 {
        stroke: #cc6969;
        stroke-miterlimit: 4;
        stroke-width: 1px;
      }

      .cls-48 {
        opacity: .28;
      }

      .cls-48, .cls-72, .cls-97 {
        fill: rgba(255, 255, 255, .19);
      }

      .cls-49 {
        fill: url(#linear-gradient-20);
      }

      .cls-50 {
        fill: #424242;
      }

      .cls-108 {
        stroke: #8eeaf6;
        stroke-width: 4px;
      }

      .cls-109 {
        stroke: #f49494;
      }

      .cls-109, .cls-110 {
        stroke-miterlimit: 4;
        stroke-width: 1px;
      }

      .cls-51 {
        fill: #000;
      }

      .cls-52 {
        fill: #d3d3d3;
      }

      .cls-53 {
        fill: rgba(0, 0, 0, .2);
      }

      .cls-54 {
        fill: #92691f;
      }

      .cls-55 {
        fill: url(#linear-gradient-2);
      }

      .cls-56 {
        fill: rgba(0, 0, 0, .3);
      }

      .cls-57 {
        fill: #6182ec;
      }

      .cls-58 {
        fill: url(#linear-gradient-15);
      }

      .cls-59 {
        opacity: .38;
      }

      .cls-60 {
        fill: #8eeaf6;
      }

      .cls-61 {
        fill: url(#linear-gradient-5);
      }

      .cls-62 {
        fill: url(#linear-gradient-24);
      }

      .cls-63 {
        fill: #42474f;
      }

      .cls-64 {
        fill: #8175ff;
      }

      .cls-65 {
        fill: #81411e;
      }

      .cls-66 {
        fill: #ffb66f;
      }

      .cls-116 {
        mask: url(#mask-6);
      }

      .cls-67 {
        fill: #f8cfcf;
      }

      .cls-68 {
        fill: #f8c5c5;
      }

      .cls-69 {
        fill: url(#linear-gradient-19);
      }

      .cls-70 {
        fill: #e7e4ff;
      }

      .cls-71 {
        fill: #7ad2dd;
      }

      .cls-73 {
        fill: #eedfe8;
      }

      .cls-74 {
        fill: #7a3636;
      }

      .cls-75 {
        fill: #74cfdb;
      }

      .cls-117 {
        mask: url(#mask-4-5);
      }

      .cls-76 {
        fill: rgba(255, 255, 255, .54);
      }

      .cls-77 {
        fill: #cbc6ff;
      }

      .cls-118 {
        mask: url(#mask-1);
      }

      .cls-119 {
        mask: url(#mask);
      }

      .cls-79 {
        fill: #ff9f43;
      }

      .cls-80 {
        fill: #524d87;
      }

      .cls-81 {
        fill: url(#linear-gradient-22);
      }

      .cls-82 {
        fill: url(#linear-gradient-12);
      }

      .cls-83 {
        fill: url(#linear-gradient-14);
      }

      .cls-84 {
        fill: #e5aa41;
      }

      .cls-120 {
        mask: url(#mask-7);
      }

      .cls-85 {
        fill: #5e54c7;
      }

      .cls-86 {
        opacity: .45;
      }

      .cls-87 {
        fill: #02b596;
      }

      .cls-88 {
        fill: #9e5229;
      }

      .cls-111 {
        stroke: #fff;
        stroke-width: 2px;
      }

      .cls-89 {
        fill: url(#linear-gradient-25);
      }

      .cls-92 {
        fill: url(#linear-gradient-6);
      }

      .cls-93 {
        fill: #e9e9e9;
      }

      .cls-94 {
        fill: #fff6e1;
      }

      .cls-95 {
        fill: url(#linear-gradient-4);
      }

      .cls-96 {
        fill: url(#linear-gradient-21);
      }

      .cls-98 {
        fill: #518df8;
      }

      .cls-99 {
        fill: url(#linear-gradient-26);
      }

      .cls-100 {
        fill: #2e2e2e;
      }

      .cls-101 {
        fill: #fb9934;
      }

      .cls-102 {
        fill: #422851;
      }

      .cls-112 {
        stroke-miterlimit: 4;
        stroke-width: 1.5px;
      }

      .cls-103 {
        fill: url(#linear-gradient-10);
      }
    </style>
    <mask id="mask" x="89.86" y="160.59" width="168.95" height="142.68" maskUnits="userSpaceOnUse">
      <g id="mask-4">
        <path id="path-3-3" data-name="path-3" class="cls-2" d="M94.86,160.59h158.95c2.76,0,5,2.24,5,5v132.68c0,2.76-2.24,5-5,5H94.86c-2.76,0-5-2.24-5-5v-132.68c0-2.76,2.24-5,5-5Z"/>
      </g>
    </mask>
    <mask id="mask-1" x="89.86" y="160.59" width="168.95" height="142.68" maskUnits="userSpaceOnUse">
      <g id="mask-4-2" data-name="mask-4">
        <path id="path-3-4" data-name="path-3" class="cls-2" d="M94.86,160.59h158.95c2.76,0,5,2.24,5,5v132.68c0,2.76-2.24,5-5,5H94.86c-2.76,0-5-2.24-5-5v-132.68c0-2.76,2.24-5,5-5Z"/>
      </g>
    </mask>
    <mask id="mask-2" x="89.86" y="160.59" width="168.95" height="142.68" maskUnits="userSpaceOnUse">
      <g id="mask-4-3" data-name="mask-4">
        <path id="path-3-5" data-name="path-3" class="cls-2" d="M94.86,160.59h158.95c2.76,0,5,2.24,5,5v132.68c0,2.76-2.24,5-5,5H94.86c-2.76,0-5-2.24-5-5v-132.68c0-2.76,2.24-5,5-5Z"/>
      </g>
    </mask>
    <mask id="mask-3" x="89.86" y="160.59" width="168.95" height="142.68" maskUnits="userSpaceOnUse">
      <g id="mask-4-4" data-name="mask-4">
        <path id="path-3-6" data-name="path-3" class="cls-2" d="M94.86,160.59h158.95c2.76,0,5,2.24,5,5v132.68c0,2.76-2.24,5-5,5H94.86c-2.76,0-5-2.24-5-5v-132.68c0-2.76,2.24-5,5-5Z"/>
      </g>
    </mask>
    <mask id="mask-4-5" data-name="mask-4" x="89.86" y="160.59" width="168.95" height="142.68" maskUnits="userSpaceOnUse">
      <g id="mask-4-6" data-name="mask-4">
        <path id="path-3-7" data-name="path-3" class="cls-2" d="M94.86,160.59h158.95c2.76,0,5,2.24,5,5v132.68c0,2.76-2.24,5-5,5H94.86c-2.76,0-5-2.24-5-5v-132.68c0-2.76,2.24-5,5-5Z"/>
      </g>
    </mask>
    <mask id="mask-5" x="89.86" y="160.59" width="168.95" height="142.68" maskUnits="userSpaceOnUse">
      <g id="mask-4-7" data-name="mask-4">
        <path id="path-3-8" data-name="path-3" class="cls-2" d="M94.86,160.59h158.95c2.76,0,5,2.24,5,5v132.68c0,2.76-2.24,5-5,5H94.86c-2.76,0-5-2.24-5-5v-132.68c0-2.76,2.24-5,5-5Z"/>
      </g>
    </mask>
    <mask id="mask-6" x="89.86" y="160.59" width="168.95" height="142.68" maskUnits="userSpaceOnUse">
      <g id="mask-4-8" data-name="mask-4">
        <path id="path-3-9" data-name="path-3" class="cls-2" d="M94.86,160.59h158.95c2.76,0,5,2.24,5,5v132.68c0,2.76-2.24,5-5,5H94.86c-2.76,0-5-2.24-5-5v-132.68c0-2.76,2.24-5,5-5Z"/>
      </g>
    </mask>
    <linearGradient id="linear-gradient" x1="78.23" y1="688.79" x2="78.4" y2="687.3" gradientTransform="translate(2627.9 23474.29) rotate(-180) scale(26.76 33.63)" gradientUnits="userSpaceOnUse">
      <stop offset="0" stop-color="#ffafaf"/>
      <stop offset="1" stop-color="#f07777"/>
    </linearGradient>
    <linearGradient id="linear-gradient-2" x1="77.83" y1="688.06" x2="78.07" y2="687.09" gradientTransform="translate(2990.26 20847.25) rotate(-180) scale(31.58 29.86)" gradientUnits="userSpaceOnUse">
      <stop offset="0" stop-color="#fdc6c6"/>
      <stop offset="1" stop-color="#fab2b2"/>
    </linearGradient>
    <linearGradient id="linear-gradient-3" x1="77.94" y1="687.03" x2="78.01" y2="686.21" gradientTransform="translate(2830.81 17647.78) rotate(-180) scale(30.05 24.94)" xlink:href="#linear-gradient-2"/>
    <linearGradient id="linear-gradient-4" x1="75.89" y1="690.51" x2="76.37" y2="691.41" gradientTransform="translate(8213.5 69409.1) rotate(-180) scale(101.16 99.78)" gradientUnits="userSpaceOnUse">
      <stop offset="0" stop-color="#28324f"/>
      <stop offset="1" stop-color="#222735"/>
    </linearGradient>
    <linearGradient id="linear-gradient-5" x1="79.16" y1="687.05" x2="79.21" y2="685.86" gradientTransform="translate(2085.8 16845.8) rotate(-180) scale(20.58 24.02)" xlink:href="#linear-gradient-2"/>
    <linearGradient id="linear-gradient-6" x1="78.09" y1="683.1" x2="78.17" y2="682.77" gradientTransform="translate(2806.45 10928.25) rotate(-180) scale(29.16 15.44)" xlink:href="#linear-gradient-2"/>
    <linearGradient id="linear-gradient-7" x1="58.57" y1="678.74" x2="58.19" y2="678.27" gradientTransform="translate(-25.43 7374.59) scale(4.49 -10.55)" gradientUnits="userSpaceOnUse">
      <stop offset="0" stop-color="#4d63a0"/>
      <stop offset="1" stop-color="#222735"/>
    </linearGradient>
    <linearGradient id="linear-gradient-8" x1="64.49" y1="683.49" x2="64.49" y2="682.42" gradientTransform="translate(-316.51 11016.09) scale(6.9 -15.53)" gradientUnits="userSpaceOnUse">
      <stop offset="0" stop-color="#fe62be"/>
      <stop offset="1" stop-color="#fdb3a8"/>
    </linearGradient>
    <linearGradient id="linear-gradient-9" x1="88.68" y1="684.05" x2="88.68" y2="682.99" gradientTransform="translate(1818.87 10890.3) rotate(174) scale(6.9 15.53)" xlink:href="#linear-gradient-8"/>
    <mask id="mask-7" x="96.41" y="463.1" width="39.29" height="81.84" maskUnits="userSpaceOnUse">
      <g id="mask-19">
        <path id="path-18-2" data-name="path-18" class="cls-2" d="M103.03,467.57h30.65c1.11,0,2.02.9,2.02,2.02,0,.06,0,.12,0,.18l-5.91,67.59c-.09,1.04-.96,1.84-2.01,1.84h-18.84c-1.05,0-1.92-.8-2.01-1.84l-5.91-67.59c-.1-1.11.72-2.09,1.83-2.18.06,0,.12,0,.18,0Z"/>
      </g>
    </mask>
    <linearGradient id="linear-gradient-10" x1="77.93" y1="687.05" x2="78.01" y2="686.23" gradientTransform="translate(2995.04 17686.53) rotate(-180) scale(30.14 25)" xlink:href="#linear-gradient-2"/>
    <linearGradient id="linear-gradient-11" x1="77.09" y1="690.28" x2="77.15" y2="689.09" gradientTransform="translate(4235.56 35409) rotate(-180) scale(46.78 50.82)" xlink:href="#linear-gradient-2"/>
    <linearGradient id="linear-gradient-12" x1="78.26" y1="688.8" x2="78.42" y2="687.31" gradientTransform="translate(2768.77 23524.15) rotate(-180) scale(26.51 33.71)" xlink:href="#linear-gradient"/>
    <linearGradient id="linear-gradient-13" x1="77.83" y1="688.07" x2="78.06" y2="687.1" gradientTransform="translate(3156.76 20890.99) rotate(-180) scale(31.67 29.93)" xlink:href="#linear-gradient-2"/>
    <linearGradient id="linear-gradient-14" x1="77.44" y1="687.53" x2="77.52" y2="686.9" gradientTransform="translate(3567.78 19662.44) rotate(-180) scale(38.27 27.85)" xlink:href="#linear-gradient-2"/>
    <linearGradient id="linear-gradient-15" x1="76.82" y1="688.21" x2="76.89" y2="687.79" gradientTransform="translate(4964.49 23050.28) rotate(-180) scale(55.46 32.94)" xlink:href="#linear-gradient-2"/>
    <linearGradient id="linear-gradient-16" x1="71.75" y1="690.02" x2="71.75" y2="688.8" gradientTransform="translate(5273.4 27721.07) rotate(-14) scale(29.12 -40.15)" gradientUnits="userSpaceOnUse">
      <stop offset="0" stop-color="#9ff6ec"/>
      <stop offset="1" stop-color="#7d9dff"/>
    </linearGradient>
    <linearGradient id="linear-gradient-17" x1="82.7" y1="689.34" x2="82.75" y2="688.15" gradientTransform="translate(9645.64 14123.9) rotate(151.13) scale(19.04 24)" gradientUnits="userSpaceOnUse">
      <stop offset="0" stop-color="#fdc6c6"/>
      <stop offset="1" stop-color="#a47070"/>
    </linearGradient>
    <linearGradient id="linear-gradient-18" x1="77.67" y1="689.44" x2="77.73" y2="688.25" gradientTransform="translate(2960.25 27445.04) rotate(-180) scale(34.25 39.39)" xlink:href="#linear-gradient-17"/>
    <linearGradient id="linear-gradient-19" x1="78.56" y1="687.81" x2="78.62" y2="686.62" gradientTransform="translate(2318.61 19189.36) rotate(-180) scale(24.54 27.4)" xlink:href="#linear-gradient-17"/>
    <linearGradient id="linear-gradient-20" x1="76.39" y1="636.36" x2="76.39" y2="635.13" gradientTransform="translate(7056.3 2041.25) rotate(-180) scale(85.63 2.59)" xlink:href="#linear-gradient-16"/>
    <linearGradient id="linear-gradient-21" x1="76.65" y1="689.41" x2="76.65" y2="688.18" gradientTransform="translate(5587.26 27654.86) rotate(-180) scale(65.98 39.61)" xlink:href="#linear-gradient-16"/>
    <linearGradient id="linear-gradient-22" x1="80.02" y1="691.03" x2="80.06" y2="689.84" gradientTransform="translate(16861.92 25216.41) rotate(151.13) scale(30.27 42.98)" gradientUnits="userSpaceOnUse">
      <stop offset="0" stop-color="#fdc6c6"/>
      <stop offset="1" stop-color="#ffcca1"/>
    </linearGradient>
    <linearGradient id="linear-gradient-23" x1="80.23" y1="686.98" x2="80.27" y2="685.79" gradientTransform="translate(1732.15 16811.69) rotate(-180) scale(15.99 23.75)" xlink:href="#linear-gradient-2"/>
    <linearGradient id="linear-gradient-24" x1="80.11" y1="686.45" x2="80.15" y2="685.26" gradientTransform="translate(1827.99 15501.46) rotate(-180) scale(16.4 21.86)" xlink:href="#linear-gradient-2"/>
    <linearGradient id="linear-gradient-25" x1="77.95" y1="688.98" x2="78" y2="687.79" gradientTransform="translate(2818.19 24484.81) rotate(-180) scale(30.52 35.1)" xlink:href="#linear-gradient-22"/>
    <linearGradient id="linear-gradient-26" x1="76.92" y1="689.71" x2="77" y2="688.82" gradientTransform="translate(4504.72 31367.64) rotate(-180) scale(52.01 44.97)" xlink:href="#linear-gradient-22"/>
  </defs>
  <g id="Layer_1-2" data-name="Layer 1">
    <g id="_-Pages-New" data-name="ðŸ“-Pages-New">
      <g id="Login-">
        <g id="Illustration">
          <g id="Shape">
            <g id="Group-59">
              <path id="Path" class="cls-30" d="M673.32,164.25c9.38-12.52,27.13-15.07,39.66-5.7,12.4,9.28,15.03,26.76,5.98,39.26l-.28.38-74.3,99.19c-9.46,12.63-27.04,15.84-40.34,7.43l-.4-.26-46.77-30.6-47.16,68.65c-8.77,12.76-26.14,16.1-39,7.58l-.39-.26c-12.77-8.76-16.11-26.13-7.58-38.98l.26-.39,61.8-89.95c9.21-13.4,27.35-17.09,41.05-8.44l.41.27,47.64,31.16,59.42-79.33Z"/>
              <path id="Path-2" data-name="Path" class="cls-30" d="M430.12,3.29c2.38-3.45,7.11-4.33,10.58-1.96,3.42,2.34,4.32,6.97,2.06,10.41l-.09.14-18.52,26.9c-2.71,3.79-7.97,4.7-11.8,2.08l-.14-.1-10.63-7.57-11.53,18.26c-2.21,3.5-6.81,4.58-10.35,2.46l-.14-.09c-3.51-2.2-4.6-6.79-2.47-10.32l.09-.14,15.28-24.21c2.52-3.99,7.8-5.19,11.8-2.68l.21.14.21.14,10.86,7.73,14.59-21.19Z"/>
              <path id="_" data-name="+" class="cls-19" d="M634.9,126.81v-17.98h17.99c1.38,0,2.5-1.12,2.5-2.5v-8.65c0-1.38-1.12-2.5-2.5-2.5h-17.99v-18.11c0-1.38-1.12-2.5-2.5-2.5h-8.8c-1.38,0-2.5,1.12-2.5,2.5v18.11h-17.99c-1.38,0-2.5,1.12-2.5,2.5v8.65c0,1.38,1.12,2.5,2.5,2.5h17.99v17.98c0,1.38,1.12,2.5,2.5,2.5h8.8c1.38,0,2.5-1.12,2.5-2.5Z"/>
              <path id="Oval" class="cls-13" d="M91.6,20c50.59,0,91.6,40.99,91.6,91.55s-41.01,91.55-91.6,91.55S0,162.11,0,111.55,41.01,20,91.6,20ZM91.6,65.3c-25.56,0-46.27,20.71-46.27,46.25s20.72,46.25,46.27,46.25,46.27-20.71,46.27-46.25-20.72-46.25-46.27-46.25Z"/>
            </g>
          </g>
          <g id="Meeting">
            <g id="Group-63">
              <path id="Rectangle" class="cls-16" d="M76.6,85h470.13c8.84,0,16,7.16,16,16v204.22c0,8.84-7.16,16-16,16H76.6c-8.84,0-16-7.16-16-16V101c0-8.84,7.16-16,16-16Z"/>
              <path id="Rectangle-2" data-name="Rectangle" class="cls-59" d="M84.15,85h462.58c8.84,0,16,7.16,16,16v204.22c0,8.84-7.16,16-16,16H84.15c-8.84,0-16-7.16-16-16V101c0-8.84,7.16-16,16-16Z"/>
              <path id="Rectangle-3" data-name="Rectangle" class="cls-16" d="M85.7,92.56h459.48c5.52,0,10,4.48,10,10v201.11c0,5.52-4.48,10-10,10H85.7c-5.52,0-10-4.48-10-10V102.56c0-5.52,4.48-10,10-10Z"/>
              <path id="Rectangle-4" data-name="Rectangle" class="cls-42" d="M280.85,293.82h69.17c3.31,0,6,2.69,6,6v13.84h-81.17v-13.84c0-3.31,2.69-6,6-6Z"/>
              <path id="Rectangle-5" data-name="Rectangle" class="cls-41" d="M288.4,293.82h69.17c3.31,0,6,2.69,6,6v21.4h-81.17v-21.4c0-3.31,2.69-6,6-6Z"/>
            </g>
            <g id="ElementCard20">
              <g id="Rectangle-6" data-name="Rectangle">
                <path id="path-1" class="cls-51" d="M95.25,102.01h125.02c2.98,0,5.39,2.41,5.39,5.39v40.65c0,2.98-2.41,5.39-5.39,5.39h-125.02c-2.98,0-5.39-2.41-5.39-5.39v-40.65c0-2.98,2.41-5.39,5.39-5.39Z"/>
                <path id="path-1-2" data-name="path-1" class="cls-2" d="M95.25,102.01h125.02c2.98,0,5.39,2.41,5.39,5.39v40.65c0,2.98-2.41,5.39-5.39,5.39h-125.02c-2.98,0-5.39-2.41-5.39-5.39v-40.65c0-2.98,2.41-5.39,5.39-5.39Z"/>
              </g>
              <path id="Rectangle-7" data-name="Rectangle" class="cls-86" d="M131.57,131.03h25.43c.84,0,1.53.68,1.53,1.53s-.68,1.53-1.53,1.53h-25.43c-.84,0-1.53-.68-1.53-1.53s.68-1.53,1.53-1.53Z"/>
              <path id="Rectangle-8" data-name="Rectangle" class="cls-26" d="M131.57,122.38h15.26c.84,0,1.53.68,1.53,1.53s-.68,1.53-1.53,1.53h-15.26c-.84,0-1.53-.68-1.53-1.53s.68-1.53,1.53-1.53Z"/>
              <g id="Group-9">
                <path id="Path-3" data-name="Path" class="cls-26" d="M204.81,120.28c2.17-2.85,6.24-3.41,9.09-1.24.66.5,1.21,1.12,1.63,1.83.22.36.1.84-.26,1.06-.36.22-.84.1-1.06-.26-.32-.54-.75-1.01-1.25-1.39-2.13-1.62-5.15-1.25-6.83.81l-.1.13-2.38,3.14c-3.73,4.9-10.03,7.06-15.96,5.5l-.25-.07-1.92-.54c-.12-.03-.25-.07-.37-.09-3.51-.77-6.98,1.4-7.84,4.87l-.04.17-.4,1.8c-.14.64-.41,1.24-.8,1.76-1.53,2.08-4.44,2.52-6.52.99-.34-.25-.42-.73-.16-1.08.25-.34.73-.42,1.08-.16,1.39,1.02,3.34.73,4.37-.67.23-.31.39-.65.49-1.02l.04-.16.4-1.8c.97-4.4,5.32-7.18,9.71-6.21l.23.05.23.06,1.92.54c5.31,1.5,11-.35,14.42-4.67l.16-.2,2.38-3.14Z"/>
                <path id="Path-4" data-name="Path" class="cls-14" d="M197.88,119.35c1.57-3.5,5.67-5.06,9.17-3.48.7.32,1.35.75,1.91,1.27,1.32,1.24,2.54,3.2,3.69,5.89.17.39-.01.84-.41,1.01-.39.17-.84-.01-1.01-.41-1.07-2.51-2.18-4.3-3.32-5.37-.44-.41-.94-.75-1.48-.99-2.67-1.2-5.8-.05-7.07,2.56l-.07.15-.49,1.1c-.12.26-.25.51-.4.74-1.83,2.94-5.69,3.83-8.62,2-.35-.22-.73-.38-1.13-.47-1.95-.45-3.9.74-4.41,2.66l-.03.14-.86,3.74c-.26,1.13-.81,2.17-1.59,3.02-2.44,2.65-6.54,2.87-9.24.52l-.14-.13-3.49-3.21c-.31-.29-.33-.78-.04-1.09.27-.29.71-.33,1.02-.1l.06.05,3.49,3.21c2.07,1.91,5.3,1.78,7.21-.3.56-.6.96-1.33,1.17-2.12l.05-.2.86-3.74c.65-2.83,3.46-4.6,6.29-3.95.5.11.97.3,1.42.55l.19.11c2.21,1.38,5.12.7,6.5-1.51.07-.12.14-.24.21-.37l.09-.19.49-1.1Z"/>
              </g>
              <ellipse id="Oval-2" data-name="Oval" class="cls-91" cx="112.49" cy="128.23" rx="10.43" ry="10.44"/>
            </g>
            <g id="ElementCard3">
              <g id="Rectangle-9" data-name="Rectangle">
                <path id="path-3" class="cls-51" d="M94.86,160.59h158.95c2.76,0,5,2.24,5,5v132.68c0,2.76-2.24,5-5,5H94.86c-2.76,0-5-2.24-5-5v-132.68c0-2.76,2.24-5,5-5Z"/>
                <path id="path-3-2" data-name="path-3" class="cls-2" d="M94.86,160.59h158.95c2.76,0,5,2.24,5,5v132.68c0,2.76-2.24,5-5,5H94.86c-2.76,0-5-2.24-5-5v-132.68c0-2.76,2.24-5,5-5Z"/>
              </g>
              <g class="cls-119">
                <g id="Path-3">
                  <path id="path-6" class="cls-108" d="M112.51,270.2c13.39-3.85,23.04-9.7,28.94-17.56,8.86-11.79,11.84-23.21,27.07-23.21s17.18,17.5,33.65,17.5,17.37-22.31,22.84-31.17c3.65-5.91,8.62-8.86,14.92-8.86"/>
                </g>
              </g>
              <g class="cls-118">
                <path id="Path-3-2" data-name="Path-3" class="cls-8" d="M112.51,268.98c13.39-3.83,23.04-9.66,28.94-17.48,8.86-11.74,11.84-23.11,27.07-23.11s17.18,17.42,33.65,17.42,17.37-22.22,22.84-31.04c3.65-5.88,8.62-8.82,14.92-8.82v74.4c0,1.7-1.38,3.08-3.08,3.08h-121.26c-1.7,0-3.08-1.38-3.08-3.08v-11.37h0Z"/>
              </g>
              <g class="cls-113">
                <rect id="Rectangle-10" data-name="Rectangle" class="cls-60" x="103.07" y="174.77" width="52.86" height="5.67"/>
              </g>
              <g class="cls-114">
                <path id="Rectangle-11" data-name="Rectangle" class="cls-28" d="M105.91,188.94h18.87c1.57,0,2.83,1.27,2.83,2.83s-1.27,2.83-2.83,2.83h-18.87c-1.57,0-2.83-1.27-2.83-2.83s1.27-2.83,2.83-2.83Z"/>
              </g>
              <g class="cls-117">
                <path id="Oval-3" data-name="Oval" class="cls-36" d="M226.24,181.38c1.82,0,3.3-1.48,3.3-3.31s-1.48-3.31-3.3-3.31-3.3,1.48-3.3,3.31,1.48,3.31,3.3,3.31Z"/>
              </g>
              <g class="cls-115">
                <path id="Oval-4" data-name="Oval" class="cls-36" d="M235.68,181.38c1.82,0,3.3-1.48,3.3-3.31s-1.48-3.31-3.3-3.31-3.3,1.48-3.3,3.31,1.48,3.31,3.3,3.31Z"/>
              </g>
              <g class="cls-116">
                <path id="Oval-5" data-name="Oval" class="cls-36" d="M245.12,181.38c1.82,0,3.3-1.48,3.3-3.31s-1.48-3.31-3.3-3.31-3.3,1.48-3.3,3.31,1.48,3.31,3.3,3.31Z"/>
              </g>
            </g>
            <g id="ElementCard11">
              <g id="Rectangle-12" data-name="Rectangle">
                <path id="path-8" class="cls-51" d="M292.72,115.24h225.21c4.13,0,7.48,3.35,7.48,7.48v150.52c0,4.13-3.35,7.48-7.48,7.48h-225.21c-4.13,0-7.48-3.35-7.48-7.48V122.72c0-4.13,3.35-7.48,7.48-7.48Z"/>
                <path id="path-8-2" data-name="path-8" class="cls-2" d="M292.72,115.24h225.21c4.13,0,7.48,3.35,7.48,7.48v150.52c0,4.13-3.35,7.48-7.48,7.48h-225.21c-4.13,0-7.48-3.35-7.48-7.48V122.72c0-4.13,3.35-7.48,7.48-7.48Z"/>
              </g>
              <g id="Group-26">
                <polygon id="Path-5" data-name="Path" class="cls-70" points="325.85 200.1 325.85 259.29 317.02 259.29 317.02 200.1 325.85 200.1"/>
                <polygon id="Path-6" data-name="Path" class="cls-14" points="325.85 214.24 325.85 259.29 317.02 259.29 317.02 214.24 325.85 214.24"/>
                <polygon id="Path-7" data-name="Path" class="cls-26" points="325.85 242.53 325.85 259.29 317.02 259.29 317.02 242.53 325.85 242.53"/>
              </g>
              <g id="Group-26-2" data-name="Group-26">
                <polygon id="Path-8" data-name="Path" class="cls-70" points="347.05 185.96 347.05 259.29 338.22 259.29 338.22 185.96 347.05 185.96"/>
                <polygon id="Path-9" data-name="Path" class="cls-14" points="347.05 207.17 347.05 259.29 338.22 259.29 338.22 207.17 347.05 207.17"/>
                <polygon id="Path-10" data-name="Path" class="cls-26" points="347.05 242.53 347.05 259.29 338.22 259.29 338.22 242.53 347.05 242.53"/>
              </g>
              <g id="Group-26-3" data-name="Group-26">
                <polygon id="Path-11" data-name="Path" class="cls-70" points="368.24 196.56 368.24 259.29 359.41 259.29 359.41 196.56 368.24 196.56"/>
                <polygon id="Path-12" data-name="Path" class="cls-14" points="368.24 217.78 368.24 259.29 359.41 259.29 359.41 217.78 368.24 217.78"/>
                <polygon id="Path-13" data-name="Path" class="cls-26" points="368.24 246.07 368.24 259.29 359.41 259.29 359.41 246.07 368.24 246.07"/>
              </g>
              <g id="Group-26-4" data-name="Group-26">
                <polygon id="Path-14" data-name="Path" class="cls-70" points="389.43 178.88 389.43 259.29 380.6 259.29 380.6 178.88 389.43 178.88"/>
                <polygon id="Path-15" data-name="Path" class="cls-14" points="389.43 200.1 389.43 259.29 380.6 259.29 380.6 200.1 389.43 200.1"/>
                <polygon id="Path-16" data-name="Path" class="cls-26" points="389.43 228.39 389.43 259.29 380.6 259.29 380.6 228.39 389.43 228.39"/>
              </g>
              <g id="Group-26-5" data-name="Group-26">
                <polygon id="Path-17" data-name="Path" class="cls-70" points="410.62 164.74 410.62 259.29 401.79 259.29 401.79 164.74 410.62 164.74"/>
                <polygon id="Path-18" data-name="Path" class="cls-14" points="410.62 193.03 410.62 259.29 401.79 259.29 401.79 193.03 410.62 193.03"/>
                <polygon id="Path-19" data-name="Path" class="cls-26" points="410.62 235.46 410.62 259.29 401.79 259.29 401.79 235.46 410.62 235.46"/>
              </g>
              <g id="Group-26-6" data-name="Group-26">
                <polygon id="Path-20" data-name="Path" class="cls-70" points="431.82 185.96 431.82 259.29 422.98 259.29 422.98 185.96 431.82 185.96"/>
                <polygon id="Path-21" data-name="Path" class="cls-14" points="431.82 207.17 431.82 259.29 422.98 259.29 422.98 207.17 431.82 207.17"/>
                <polygon id="Path-22" data-name="Path" class="cls-26" points="431.82 239.7 431.82 259.29 422.98 259.29 422.98 239.7 431.82 239.7"/>
              </g>
              <g id="Group-26-7" data-name="Group-26">
                <polygon id="Path-23" data-name="Path" class="cls-70" points="453.01 193.03 453.01 259.29 444.18 259.29 444.18 193.03 453.01 193.03"/>
                <polygon id="Path-24" data-name="Path" class="cls-14" points="453.01 207.17 453.01 259.29 444.18 259.29 444.18 207.17 453.01 207.17"/>
                <polygon id="Path-25" data-name="Path" class="cls-26" points="453.01 234.75 453.01 259.29 444.18 259.29 444.18 234.75 453.01 234.75"/>
              </g>
              <g id="Group-26-8" data-name="Group-26">
                <polygon id="Path-26" data-name="Path" class="cls-70" points="474.2 178.88 474.2 259.29 465.37 259.29 465.37 178.88 474.2 178.88"/>
                <polygon id="Path-27" data-name="Path" class="cls-14" points="474.2 207.17 474.2 259.29 465.37 259.29 465.37 207.17 474.2 207.17"/>
                <polygon id="Path-28" data-name="Path" class="cls-26" points="474.2 241.83 474.2 259.29 465.37 259.29 465.37 241.83 474.2 241.83"/>
              </g>
              <g id="Group-26-9" data-name="Group-26">
                <polygon id="Path-29" data-name="Path" class="cls-70" points="495.39 193.03 495.39 259.29 486.56 259.29 486.56 193.03 495.39 193.03"/>
                <polygon id="Path-30" data-name="Path" class="cls-14" points="495.39 207.17 495.39 259.29 486.56 259.29 486.56 207.17 495.39 207.17"/>
                <polygon id="Path-31" data-name="Path" class="cls-26" points="495.39 241.83 495.39 259.29 486.56 259.29 486.56 241.83 495.39 241.83"/>
              </g>
              <path id="Rectangle-13" data-name="Rectangle" class="cls-25" d="M316.32,143.52h70.64c1.17,0,2.12.95,2.12,2.12s-.95,2.12-2.12,2.12h-70.64c-1.17,0-2.12-.95-2.12-2.12s.95-2.12,2.12-2.12Z"/>
              <rect id="Rectangle-14" data-name="Rectangle" class="cls-91" x="314.2" y="131.5" width="39.56" height="4.24"/>
            </g>
            <g id="Chair4">
              <polygon id="Path-32" data-name="Path" class="cls-20" points="558.04 449.88 569.48 540.29 563.48 540.21 552.04 450.73 558.04 449.88"/>
              <path id="Path-33" data-name="Path" class="cls-41" d="M471.17,454.65c0-5.22,4.23-9.45,9.45-9.45h37.76c5.72,0,10.5-4.35,11.04-10.05l6.04-64.19c.54-5.7,5.32-10.05,11.04-10.05h23.7c6.12,0,11.09,4.96,11.09,11.09,0,.28-.01.57-.03.85l-6.22,81.01c-.44,5.78-5.26,10.24-11.06,10.24h-83.35c-5.22,0-9.45-4.23-9.45-9.45Z"/>
              <path id="Combined-Shape" class="cls-20" d="M569.94,360.91c.57,0,1.14.04,1.69.13.09.56.13,1.14.13,1.72,0,.28-.01.57-.03.85l-6.22,80.72c-.45,5.78-5.26,10.24-11.06,10.24h-83.29c0-.06,0-.12,0-.18,0-5.2,4.22-9.42,9.42-9.42h37.65c5.72,0,10.5-4.35,11.04-10.05l6.03-63.96c.54-5.7,5.32-10.05,11.04-10.05h23.59Z"/>
            </g>
            <g id="Wom1.4">
              <g id="Head">
                <path id="Path-34" data-name="Path" class="cls-102" d="M545.28,345.34c12.2-2.84,13-19.59,3.73-25.41,9.56-20.06-12.55-39.98-27.7-27.69-9.93-4.25-18.19,12.34-8.94,25.24-3.87,22.14,4.01,27.86,18.23,28.1l14.69-.24Z"/>
                <path id="Path-35" data-name="Path" class="cls-45" d="M545.12,341.34s-5.93-1.39-6.14-11.12-.06-13.05-.06-13.05l-13.07-.24s-.14,10.84-.14,14.76c0,10.53-7.34,9.64-7.34,9.64,0,0,1.52,8.54,13.37,9.21,9.25.52,13.39-9.21,13.39-9.21Z"/>
                <path id="Path-36" data-name="Path" class="cls-55" d="M541.97,312.31c5.83-.23,4.88,8.31-1.18,8.3,0,0-3.52,12.13-15.73,12.13-9.92,0-10.56-14.14-10.65-16.96-.1-3.01-.11-12.89-.11-12.89h27.9s-.23,9.41-.23,9.41Z"/>
                <path id="Path-37" data-name="Path" class="cls-112" d="M527.42,324.6s-2.91,2.46-6.28.16"/>
                <path id="Path-38" data-name="Path" class="cls-109" d="M525.5,327.45c-.91.42-1.78.45-2.55.03"/>
                <path id="Path-8" class="cls-104" d="M541.38,316.9c-.06-1.37.36-2.46,1.75-2.68"/>
                <path id="Path-39" data-name="Path" class="cls-102" d="M542.89,311.26s-3.2,4.29-3.84,4.31c-.65.02-.87-5.58-.87-5.58-3.92-.3-13.84-2.28-16.27-6.88-1.7,4.06-4.95,5.87-7.09,5.52l-.4,8.63-1-17.36h30.26l-.78,11.35Z"/>
              </g>
              <g id="LLeg">
                <path id="Path-40" data-name="Path" class="cls-24" d="M485.41,512.89s5.23,10.57.94,13.9c-4.29,3.33-15.64,9.58-15.64,9.58l30.05-1.89-6.68-23.05-8.68,1.47Z"/>
                <path id="Path-41" data-name="Path" class="cls-44" d="M497.86,522.95c-1.48.17.1,5.17-3.11,5.55-3.2.38-4.76-4.35-8.4-2.85-3.64,1.5-16.9,9.26-17.42,12.43-.53,3.17,4.41,4.1,11.19,3.39s8.03-3.13,13.11-2.16c5.08.97,8.89-.58,8.72-4.29-.17-3.71-2.61-12.24-4.09-12.07Z"/>
                <path id="Path-14" class="cls-76" d="M484.69,526.42l.66.99c.31.46.18,1.08-.28,1.39-.02.01-.04.03-.07.04l-8.97,5.01c-.29.16-.64.17-.94.02l-1.39-.71h0c2.19-1.58,3.97-2.77,5.95-3.94,1.52-.9,3.2-1.82,5.03-2.79Z"/>
                <path id="Path-42" data-name="Path" class="cls-95" d="M530.68,419.72c-9.1.41-59.74,11.61-68.94,13.52-9.2,1.9-16.98,12.21-9.96,24.14,7.88,13.39,28.21,51.42,33.15,60,2.44,4.24,14.77,1.86,11.87-5.26-5.4-13.28-7.9-46.63-21.66-58.79,0,0,46.28,8.06,66.27-1.17,14.53-6.71,11.24-33.41-10.72-32.43Z"/>
              </g>
              <g id="LArm">
                <path id="Path-43" data-name="Path" class="cls-61" d="M466.21,365.89s.1-7.41-2.49-11.28c-2.59-3.87-2.69-7.98-4.65-7.85-1.96.13-.02,9.69-.02,9.69,0,0-2.49-.95-4.27-2.15s-7.2-7.13-8.47-6.08c-2.15,1.79,1.31,11.88,3.19,13.9,1.89,2.02,12.21,8.66,12.21,8.66l4.5-4.89Z"/>
                <path id="Path-44" data-name="Path" class="cls-37" d="M522.12,361.45c-4.23,9.82-11.98,27.87-15.18,33.25-4,6.74-10.32,9.71-17.71,4.71-7.77-5.26-29.15-25.76-29.78-30.4-.62-4.64,4.61-10.21,9.35-7.33,4.74,2.88,24.42,19.27,24.42,19.27,0,0,7.94-20.37,14.33-32.17,5.53-10.21,21.01-2.26,14.57,12.67Z"/>
                <path id="Path-45" data-name="Path" class="cls-56" d="M493.14,380.97c-1.42,4.83-2.3,7.1-2.63,6.82-.33-.28-.21-3.18.38-8.71l2.25,1.89Z"/>
              </g>
              <g id="Body">
                <path id="Path-46" data-name="Path" class="cls-90" d="M564.42,349.62s-10.2,34.17-10.5,40.64c-.3,6.47,8.34,25.48,6.87,30.29-3.39,11.1-46.72,15.89-48.37.95-.77-6.97.83-13.22-1.02-21.43-1.84-8.21-9.26-20.41-5.05-31.88s3.08-22.08,6.09-24.08c3.01-2.01,10.04-4.14,10.04-4.14,3.42,5.03,14.96,4.96,20.47-.35,0,0,13.68,2.66,21.48,10.01Z"/>
                <path id="Path-47" data-name="Path" class="cls-53" d="M555.28,355.15c-6.8,10.8-6.78,29.59-10.43,32.05-3.65,2.46-17.86.05-17.86,2s19.64,19.81,16.42,28.35c-1.69,4.47-1.23,8.47,1.37,12l.85-.19c7.74-1.75,13.96-4.89,15.16-8.83,1.47-4.81-8.17-23.82-7.87-30.29.26-5.49,8.36-30.94,10.81-38.51-1.99-3.51-4.81-2.38-8.45,3.41Z"/>
              </g>
              <g id="RArm">
                <path id="Path-48" data-name="Path" class="cls-92" d="M543.69,383.79s-8.59-7.61-11.22-8.49c-2.63-.88-18.03-1.94-17.94.05.11,2.14,8.38,2.01,9.24,3.07.86,1.05,1.05,8.24,4.29,9.04,3.23.81,12.93,2.2,12.93,2.2l2.69-5.87Z"/>
                <path id="Path-49" data-name="Path" class="cls-37" d="M566.54,351.58c9.05,12.78,16.78,32.25,19.74,39.84,2.97,7.59-.03,19.04-13.07,16.79-13.02-2.24-33.74-14.42-36.03-17.98-2.29-3.55,1.19-10.02,5.57-9.17,4.06.78,24.21,9.36,24.21,9.36,0,0-12.96-22.99-16.13-29.15-5.29-10.29,7.72-20.95,15.69-9.69Z"/>
                <path id="Path-50" data-name="Path" class="cls-56" d="M566.77,390.27c4.53,2.25,6.51,2.9,5.96,1.96-.55-.94-3.4-3.07-8.55-6.39l2.59,4.43Z"/>
              </g>
            </g>
            <g id="Men3.2">
              <g id="LLeg-2" data-name="LLeg">
                <path id="Path-51" data-name="Path" class="cls-67" d="M234.06,509.19s-.14,8.71,5.21,11.81c5.35,3.09,13.63,8.84,13.63,8.84l-31.51,1.07.9-21.8,11.77.08Z"/>
                <path id="Path-52" data-name="Path" class="cls-17" d="M220.29,518.79l-.51,14.13h7.32l.5-1.82s2.76-.11,4.35.67c1.68.83,1.91,1.24,1.91,1.24l23.21.05s1.15-4.57-5.93-7.87c-7.08-3.3-12.23-7.99-13.21-8.47-.99-.48-2.97-.76-4.38.38-1.4,1.14-2.51,4.12-5.68,4.22-4.09.12-6.43-4.91-7.58-2.52Z"/>
                <line id="Path-38" class="cls-111" x1="240.13" y1="518.25" x2="237.73" y2="520.58"/>
                <line id="Path-38-2" data-name="Path-38" class="cls-111" x1="243.64" y1="520.01" x2="241.23" y2="522.34"/>
                <line id="Path-38-3" data-name="Path-38" class="cls-111" x1="247.15" y1="521.78" x2="244.74" y2="524.11"/>
                <path id="Path-53" data-name="Path" class="cls-27" d="M211,321s8.75,96.38,9.03,103.08c.27,6.7-2.81,18.26-2.75,30.79.04,8.35.42,27.26,1.13,56.7l19.31.41c5.41-53.21,8.14-83.81,8.2-91.79.09-11.97.83-98.05.83-98.05l-35.74-1.15Z"/>
                <path id="Path-54" data-name="Path" class="cls-48" d="M224.92,427.08l.02.24c.29,4.09-2.25,17.53-7.61,40.33l-.05-12.77h0c-.06-12.31,2.91-23.68,2.76-30.43v-.36c-.1-2.26-1.16-14.7-2.52-30.21l.63,2.27c3.72,13.45,5.98,23.76,6.76,30.94Z"/>
              </g>
              <g id="RLeg">
                <polygon id="Path-55" data-name="Path" class="cls-67" points="187.48 507.97 183.75 530.53 197.48 530.46 197.92 507.61 187.48 507.97"/>
                <path id="Path-56" data-name="Path" class="cls-17" d="M183.64,520.56l-.11,3.35h0c-1.37,1.52-2.36,4.56-2.96,9.13,0,3.19,21.22,3.09,22.23,0-.74-4.97-1.91-8.08-3.51-9.33v-3.32c-.02-1.35-.93-2.54-2.23-2.89l-2.06-.55h0c-2.01-2.93-4.74-2.82-7.09.37l-1.91.41c-1.34.29-2.32,1.46-2.36,2.83Z"/>
                <line id="Path-39" class="cls-111" x1="188.69" y1="519.75" x2="194.24" y2="519.75"/>
                <line id="Path-39-2" data-name="Path-39" class="cls-111" x1="188.69" y1="522.39" x2="194.24" y2="522.39"/>
                <line id="Path-39-3" data-name="Path-39" class="cls-111" x1="189.57" y1="525.04" x2="193.36" y2="525.04"/>
                <path id="Path-57" data-name="Path" class="cls-100" d="M194.4,322.26s-6.13,66.07-6.05,78.72c.08,12.65,1.89,18.21-.68,27.28-1.71,6.05-3.3,33.22-4.76,81.52l18.99,2.08c8.09-51.68,12.57-81.1,13.45-88.27,1.32-10.75,17.63-102.25,17.63-102.25l-38.58.91Z"/>
                <path id="Path-58" data-name="Path" class="cls-48" d="M199.53,367.1l-1.16,4.19c-3.39,12.38-6.52,25.46-5.7,44.16l.04.85c.2,4.05-2.37,27.55-7.73,70.51l-.51,3.02c-.53,3.08-.99,5.71-1.4,7.88l.12-3.8c.68-21,2.52-58.7,4.49-65.65,2.57-9.08.76-14.63.68-27.28-.06-8.86,2.93-43.89,4.73-64.11l1.32-14.61,8.02-.19.02,2.25c.14,20.77-.83,35.03-2.91,42.78h0Z"/>
              </g>
              <g id="LArm-2" data-name="LArm">
                <g id="Group-6">
                  <path id="Path-59" data-name="Path" class="cls-67" d="M287.84,240.57s-1.59-8.74-1.02-10.51c.49-1.53,5.09-3.73,5.09-3.73,0,0,8-12.51,9.76-11.23,1.43,1.03-4.17,10.25-4.17,10.25,0,0,5.1,5.29,5.03,7.66-.07,2.37-8.33,9.77-8.33,9.77l-6.37-2.21Z"/>
                  <path id="Path-60" data-name="Path" class="cls-11" d="M292.08,226.2s3.55-.48,4.11.61c.48.93-2.46,3.57-2.46,4.31s.04,6.35.28,6.4,3.55-9.16,2.84-11.1c-.58-1.6-4.77-.22-4.77-.22Z"/>
                </g>
                <path id="Path-61" data-name="Path" class="cls-9" d="M245.55,251.68c-9.29-8.02-23.23,6.44-7.68,19.89,5.93,5.13,24.56,17.92,29.13,20.74,7.27,4.48,13.25.44,15.7-6.61,2.08-5.97,14.54-37.95,12.96-42.65-1.03-3.06-6.58-6.04-9.37-3.63-4.07,3.52-16.52,34.43-16.52,34.43,0,0-13.66-13.03-24.22-22.16Z"/>
                <path id="Path-62" data-name="Path" class="cls-21" d="M269.77,273.84c2.72,3.3,4.18,4.69,4.37,4.19.2-.5-.88-2.87-3.23-7.11l-1.14,2.92Z"/>
                <path id="Path-41" class="cls-106" d="M285.21,241.39c3.24-1.5,6.78.35,8.73,3.33"/>
              </g>
              <g id="Head-2" data-name="Head">
                <path id="Path-63" data-name="Path" class="cls-68" d="M205.74,242.43s5.34-1.23,5.52-9.8c.19-8.58.06-11.5.06-11.5l12.66-.21s.13,9.56.13,13.01c0,7.53,5.71,9.56,5.71,9.56,0,0-.47,8.23-11.13,8.82-8.32.46-12.94-9.87-12.94-9.87Z"/>
                <g id="Head1">
                  <path id="Path-64" data-name="Path" class="cls-7" d="M235.25,211.88l-.28,8.1c2.39-2.76,4.01-6.17,4.49-10.55l-4.2,2.45Z"/>
                  <path id="Path-65" data-name="Path" class="cls-67" d="M210.16,216.79c-5.25-.2-4.39,7.33,1.06,7.32,0,0,5.86,11.54,15.05,11.57,4.43.01,5.87-3.85,7.2-6.57,1.33-2.71,2.3-6.78,2.38-9.26.09-2.65.1-11.36.1-11.36h-26s.2,8.3.2,8.3Z"/>
                  <path class="cls-50" d="M235.95,212.49h-18.28c-.19,3.24-1.29,5.93-4.08,7.91,0,.58.04,1.14.1,1.68h-1.68c-.07-1.13-.08-2.33,0-3.6-.86-1.15-3.91-1.36-4.92-.22-1.72-4.73-.98-11.43,3.98-12.4-3.9-10.08,49.13-12.22,24.88,6.63Z"/>
                  <path id="Path-66" data-name="Path" class="cls-107" d="M224.24,230.1s2.38,1.72,5.52-.16"/>
                  <path id="Path-8-2" data-name="Path-8" class="cls-105" d="M210.98,221.09c.05-1.21-.32-2.17-1.58-2.36"/>
                </g>
              </g>
              <g id="Body-2" data-name="Body">
                <path id="Path-67" data-name="Path" class="cls-90" d="M208.09,241l15.1,9.8,6.81-7.91s14.35,4.44,17.01,9.63c3.84,7.49-1.22,67.5.99,71.13,4.7,7.72-1.55,13.01-22.24,14.96-20.69,1.95-39.05.35-35.71-9.95,3.33-10.3-9.52-77.51,1.81-81.21,3.54-1.16,16.24-6.44,16.24-6.44Z"/>
                <path id="Path-68" data-name="Path" class="cls-21" d="M197.9,259.53c.91,1.61.44,7.21-1.41,16.78-1.58,8.15.23,16.59,5,23.4l.27.38c1.62,2.23,3.11,5.17,4.47,8.81,3.34,8.93-4.37,16.38,1.54,30.35l-.71-.03c-11.6-.6-19.26-3.58-17.01-10.55,2.73-8.44-5.42-55.15-2.2-73.74,5.58,1.09,8.93,2.63,10.05,4.61Z"/>
                <path id="Path-69" data-name="Path" class="cls-85" d="M208.09,241l13.51,8.8c-1.98,2.3-3.04,4.97-3.44,7.91-5.19-4.05-10.59-9.72-12.26-15.81l2.19-.9Z"/>
                <path id="Path-70" data-name="Path" class="cls-85" d="M224.26,249.57c2.28,1.54,4.11,4.27,5.59,7.38,1.78-3.57,2.46-8.28,2.46-13.3l-2.23-.88-5.82,6.81Z"/>
                <path id="Path-71" data-name="Path" class="cls-77" d="M221.6,249.79l.18.1c.81.45,1.82.32,2.48-.33h0c5.09,18.64,8.68,39.16,9.76,60.01l-5.32,8.81-6.22-8.25c.81-21.67.8-42.8-.89-60.35Z"/>
              </g>
              <g id="RArm-2" data-name="RArm">
                <g id="Example-Book-Back">
                  <g id="Group-3">
                    <path id="Rectangle-15" data-name="Rectangle" class="cls-57" d="M237.89,294.81l12.31,1.8c1.31.19,2.23,1.38,2.09,2.7l-2.21,21.01c-.14,1.35-1.35,2.34-2.71,2.19-.03,0-.07,0-.1-.01l-12.31-1.8c-1.31-.19-2.23-1.38-2.09-2.7l2.21-21.01c.14-1.35,1.35-2.34,2.71-2.19.03,0,.07,0,.1.01Z"/>
                    <path id="Rectangle-16" data-name="Rectangle" class="cls-18" d="M239.47,294.41l12.87,2.52h0l8.8-.15c1.36-.02,2.48,1.06,2.5,2.42,0,.1,0,.2-.01.3l-2.21,20.98c-.13,1.24-1.16,2.19-2.41,2.21l-9.41.16h0l-13.3-2.61c-1.25-.25-2.11-1.41-1.98-2.68l2.21-21c.14-1.35,1.35-2.34,2.71-2.19.07,0,.14.02.22.03Z"/>
                    <path id="Rectangle-17" data-name="Rectangle" class="cls-75" d="M240.75,300.08l5.91,1.08c.82.15,1.39.91,1.3,1.74l-.25,2.39c-.09.88-.88,1.52-1.76,1.42-.04,0-.08-.01-.12-.02l-5.91-1.08c-.82-.15-1.39-.91-1.3-1.74l.25-2.39c.09-.88.88-1.52,1.76-1.42.04,0,.08.01.12.02Z"/>
                    <path id="Rectangle-18" data-name="Rectangle" class="cls-39" d="M252.24,296.92l.52.05c.44.05.76.44.71.88l-2.55,24.24c-.05.44-.44.76-.88.71l-.52-.05c-.44-.05-.76-.44-.71-.88l2.55-24.24c.05-.44.44-.76.88-.71Z"/>
                    <path id="Rectangle-19" data-name="Rectangle" class="cls-71" d="M252.94,296.99l.52.05c.44.05.76.44.71.88l-2.55,24.24c-.05.44-.44.76-.88.71l-.52-.05c-.44-.05-.76-.44-.71-.88l2.55-24.24c.05-.44.44-.76.88-.71Z"/>
                  </g>
                </g>
                <path id="Path-72" data-name="Path" class="cls-67" d="M221.89,306.41s4.59-.92,6.46-2.38c1.88-1.46,7.56-2.5,7.56-2.5l-1.82,3.81s13.93-1.3,14.26.07c.33,1.37-3.7,2.85-3.7,2.85,0,0-1.99,3.69-3.91,5.83-1.82,2.02-10.86,1.78-14.03.52-2.74-1.09-5.72-.55-5.72-.55l.89-7.64Z"/>
                <path id="Path-73" data-name="Path" class="cls-9" d="M185,253.24c4.98-10.7,22.04-3.49,17.74,7.97-4.16,11.1-14.25,37.02-14.25,37.02,0,0,31.97,4.03,34.46,5.91,3.33,2.51,1.27,9.67-1.56,10.94-2.39,1.08-20.15,1.71-37.53.35-8.6-.67-14.96-4.34-15.84-13.88-.62-6.68,12.18-38.01,16.98-48.32Z"/>
                <path id="Path-74" data-name="Path" class="cls-21" d="M188.5,298.22c-1.77,3.35-2.4,5.05-1.9,5.12.51.07,2.05-1.52,4.62-4.75l-2.72-.37Z"/>
                <path id="Path-40" class="cls-110" d="M220.7,303.6c.99,3.13.29,6.8-1.07,9.39"/>
              </g>
            </g>
            <g id="Vase2">
              <g id="Group-39">
                <path id="Rectangle-20" data-name="Rectangle" class="cls-40" d="M85.36,443.35c8.23-3.7,17.9-.02,21.59,8.21.01.03.03.06.04.09l2.86,6.48h0c-8.23,3.7-17.9.02-21.59-8.21-.01-.03-.03-.06-.04-.09l-2.86-6.48h0Z"/>
                <path id="Path-75" data-name="Path" class="cls-87" d="M97.18,447.3c8.25,5.87,13.6,12.41,16.06,19.62,2.48,7.25,3.49,19.4,3.03,36.42,0,.26.2.48.46.49.26,0,.48-.2.49-.46.46-17.13-.56-29.38-3.08-36.76-2.54-7.42-8.01-14.11-16.41-20.09-.21-.15-.51-.1-.66.11s-.1.51.11.67Z"/>
                <path id="Rectangle-21" data-name="Rectangle" class="cls-40" d="M155.49,439.32c-8.1-3.81-17.75-.33-21.56,7.77-.02.03-.03.06-.04.1l-3.21,6.95h0c8.1,3.81,17.75.33,21.56-7.77.02-.03.03-.06.04-.1l3.21-6.95h0Z"/>
                <g id="Group-88">
                  <path id="Rectangle-22" data-name="Rectangle" class="cls-40" d="M90.5,423.39c7.84-1.67,15.55,3.34,17.22,11.18l1.35,6.35h0c-7.84,1.67-15.55-3.34-17.22-11.18l-1.35-6.35h0Z"/>
                  <path id="Path-76" data-name="Path" class="cls-87" d="M96.27,428.45c6.05,4.22,10.14,8.77,12.28,13.65l.13.31.13.32c2.2,5.46,5.84,19.75,10.9,42.82.06.26.31.42.56.36.26-.06.42-.31.36-.57l-.63-2.85-.73-3.29c-4.57-20.44-7.85-32.92-9.86-37.49-2.22-5.05-6.43-9.73-12.61-14.05-.22-.15-.51-.1-.66.12-.15.22-.09.51.12.66Z"/>
                </g>
                <path id="Rectangle-23" data-name="Rectangle" class="cls-40" d="M143.63,418.56c-8.64-.15-15.77,6.73-15.93,15.37h0s-.13,7.72-.13,7.72h0c8.64.15,15.77-6.73,15.93-15.37h0s.13-7.72.13-7.72h0Z"/>
                <path id="Path-77" data-name="Path" class="cls-87" d="M137.95,421.66c-5.56,8.16-9.62,16.04-12.19,23.63-2.56,7.58-5.11,19.29-7.66,35.13-.04.26.13.51.39.55.26.04.5-.13.54-.39l.31-1.93.22-1.3c2.37-14.17,4.73-24.75,7.1-31.75,2.53-7.51,6.56-15.31,12.07-23.4.15-.22.09-.51-.12-.66-.22-.15-.51-.09-.66.12Z"/>
                <g id="Group-87">
                  <path id="Path-78" data-name="Path" class="cls-87" d="M125.91,416.32c-3.01,8.56-5.17,19.16-6.5,31.77-1.33,12.62-1.61,25.23-.83,37.85l2.2.2c-.79-14.73-.71-27.38.24-37.97s2.94-21.17,6-31.76l-1.1-.1Z"/>
                  <path id="Oval-6" data-name="Oval" class="cls-5" d="M125.52,420.76c3.89.98,7.83-1.41,8.8-5.33.97-3.92-1.89-15.9-3.46-16.29-1.56-.39-9.66,8.82-10.63,12.75-.97,3.92,1.4,7.9,5.29,8.88Z"/>
                  <path id="Oval-7" data-name="Oval" class="cls-40" d="M126.6,417.67c2.71.68,5.46-1.04,6.15-3.84.69-2.8-1.88-10.06-2.97-10.33-1.09-.27-6.14,5.06-6.83,7.86-.69,2.8.94,5.63,3.65,6.31Z"/>
                  <path id="Path-79" data-name="Path" class="cls-4" d="M127.73,417.01l4.06-12.66c.24-.75-.17-1.56-.91-1.8-.75-.24-1.55.17-1.79.92l-4.06,12.66c-.24.75.17,1.56.91,1.8.75.24,1.55-.17,1.79-.92Z"/>
                </g>
                <g id="Group-87-2" data-name="Group-87">
                  <path id="Path-80" data-name="Path" class="cls-87" d="M103.95,403.59c3.89,8.2,7.15,18.51,9.79,30.92,2.64,12.41,4.23,24.93,4.78,37.56l-2.17.43c-.76-14.73-2.16-27.3-4.2-37.73s-5.14-20.75-9.28-30.96l1.08-.21Z"/>
                  <path id="Oval-8" data-name="Oval" class="cls-5" d="M104.8,407.97c-3.77,1.38-7.94-.58-9.31-4.38-1.37-3.8.22-16.01,1.73-16.56,1.51-.55,10.53,7.76,11.91,11.57,1.37,3.8-.56,8-4.33,9.38Z"/>
                  <path id="Oval-9" data-name="Oval" class="cls-40" d="M103.4,405.01c-2.62.96-5.54-.46-6.52-3.18-.98-2.72.82-10.2,1.87-10.58,1.05-.39,6.64,4.39,7.62,7.11.98,2.72-.35,5.69-2.97,6.65Z"/>
                  <path id="Path-81" data-name="Path" class="cls-15" d="M102.21,404.46l-5.36-12.17c-.32-.72,0-1.57.72-1.89.72-.32,1.56,0,1.88.73l5.36,12.17c.32.72,0,1.57-.72,1.89-.72.32-1.56,0-1.88-.73Z"/>
                </g>
                <path id="Path-82" data-name="Path" class="cls-87" d="M151.02,441.35c-11.23,4.39-19.06,9.47-23.48,15.25-4.43,5.78-7.35,14.74-8.79,26.89-.03.26.15.5.41.53.26.03.5-.16.53-.42,1.42-11.99,4.3-20.8,8.6-26.42,4.3-5.62,12-10.61,23.08-14.94.24-.1.36-.37.27-.62-.09-.25-.37-.37-.61-.27Z"/>
              </g>
              <g id="Group-38">
                <path id="Path-151" class="cls-87" d="M120.93,476.6c-3.55-12.66-12.35-17.14-26.38-13.44,10.51,3.43,18.44,7.91,23.8,13.44h2.58Z"/>
                <path id="Path-151-2" data-name="Path-151" class="cls-87" d="M120.88,473.68c3.55-12.66,11.25-18.07,23.1-16.22-7.19,5.91-14.03,11.32-20.52,16.22h-2.58Z"/>
                <path id="Path-151-3" data-name="Path-151" class="cls-87" d="M120.84,477.45c-3.18-11.24-1.06-21.69,6.35-31.36-.38,13.31-1.85,23.35-4.43,30.13l-1.92,1.23Z"/>
                <path id="Path-114" class="cls-40" d="M116.17,473.68c-2.11-6.09-4.2-14.59-5.77-22.84,7.76,3.12,10.26,15.56,7.76,22.84h-1.99Z"/>
                <g id="Group-89">
                  <g id="Rectangle-24" data-name="Rectangle">
                    <path id="path-18" class="cls-12" d="M103.03,467.57h30.65c1.11,0,2.02.9,2.02,2.02,0,.06,0,.12,0,.18l-5.91,67.59c-.09,1.04-.96,1.84-2.01,1.84h-18.84c-1.05,0-1.92-.8-2.01-1.84l-5.91-67.59c-.1-1.11.72-2.09,1.83-2.18.06,0,.12,0,.18,0Z"/>
                  </g>
                  <g class="cls-120">
                    <path id="Rectangle-25" data-name="Rectangle" class="cls-64" d="M96.41,463.1h12.94c-8.02,30.45,16.13,51.39,0,81.84h-12.94v-81.84Z"/>
                  </g>
                </g>
              </g>
            </g>
            <g id="Chair4-2" data-name="Chair4">
              <polygon id="Path-25" class="cls-41" points="678.75 449.88 667.3 540.29 673.3 540.21 684.75 450.73 678.75 449.88"/>
              <polygon id="Path-83" data-name="Path" class="cls-41" points="645.45 449.88 634.01 540.29 640 540.21 651.45 450.73 645.45 449.88"/>
              <polygon id="Path-84" data-name="Path" class="cls-20" points="718.5 449.88 729.94 540.29 723.94 540.21 712.5 450.73 718.5 449.88"/>
              <path id="Path-85" data-name="Path" class="cls-41" d="M631.63,454.65c0-5.22,4.23-9.45,9.45-9.45h37.76c5.72,0,10.5-4.35,11.04-10.05l6.04-64.19c.54-5.7,5.32-10.05,11.04-10.05h23.7c6.12,0,11.09,4.96,11.09,11.09,0,.28-.01.57-.03.85l-6.22,81.01c-.44,5.78-5.26,10.24-11.06,10.24h-83.35c-5.22,0-9.45-4.23-9.45-9.45Z"/>
              <path id="Combined-Shape-2" data-name="Combined-Shape" class="cls-20" d="M730.4,360.91c.57,0,1.14.04,1.69.13.09.56.13,1.14.13,1.72,0,.28-.01.57-.03.85l-6.22,80.72c-.45,5.78-5.26,10.24-11.06,10.24h-83.29c0-.06,0-.12,0-.18,0-5.2,4.22-9.42,9.42-9.42h37.65c5.72,0,10.5-4.35,11.04-10.05l6.03-63.96c.54-5.7,5.32-10.05,11.04-10.05h23.59Z"/>
            </g>
            <g id="Wom2.4">
              <g id="LLeg-3" data-name="LLeg">
                <path id="Path-86" data-name="Path" class="cls-103" d="M643.11,511.42s5.25,10.6.95,13.93c-4.31,3.34-15.68,9.6-15.68,9.6l30.14-1.89-6.7-23.11-8.7,1.47Z"/>
                <path id="Path-87" data-name="Path" class="cls-73" d="M655.53,521c-.95.45.61,4.71-2.73,4.41-3.34-.3-5.43-4.7-7.89-4.41-2.46.28-4.02,4.72-8.71,7.8-4.68,3.09-11.63,6.77-11.16,9.87.47,3.1,11.39,3.93,16.93,2.91,5.54-1.03,8.12-3.25,11.71-3.07,3.59.18,5.85-.26,6.98-2.57,1.13-2.31-4.04-15.46-5.13-14.94Z"/>
                <path id="Path-88" data-name="Path" class="cls-46" d="M655.26,535.17l-.31-.02c-4.45-.38-7.51,2.42-11.74,3.21-4.24.79-15.41,1.06-17.2-1.59-.08-.13-.16-.25-.24-.38-.6.74-.88,1.53-.74,2.45.47,2.95,11.4,3.74,16.93,2.77,5.54-.98,8.12-3.1,11.71-2.93l.64.02c3.22.09,5.28-.41,6.34-2.47.26-.5.2-1.58-.06-2.95-1.5,1.03-3.4,1.94-5.34,1.88h0Z"/>
                <path id="Path-89" data-name="Path" class="cls-34" d="M688.51,418.03c-9.12.41-59.91,11.64-69.14,13.55-9.23,1.91-17.03,12.23-9.99,24.19,7.9,13.42,28.29,51.54,33.24,60.14,2.45,4.25,14.81,1.87,11.91-5.27-5.41-13.31-7.93-46.74-21.73-58.93,0,0,46.41,8.08,66.46-1.17,14.57-6.73,11.27-33.49-10.75-32.5Z"/>
              </g>
              <g id="LArm-3" data-name="LArm">
                <path id="Path-90" data-name="Path" class="cls-6" d="M624.86,361.07s.1-5.42-2.49-9.3-2.7-8-4.67-7.87c-1.97.13-.02,9.71-.02,9.71,0,0-2.49-.95-4.29-2.16-1.79-1.21-7.22-7.15-8.49-6.09-2.15,1.79,1.31,11.91,3.2,13.94,1.89,2.02,11.24,7.68,11.24,7.68l27.53,27.74,4.12-14.73-26.14-18.92Z"/>
                <path id="Path-91" data-name="Path" class="cls-33" d="M679.93,358.63c-4.24,9.84-12.02,27.93-15.22,33.33-4.02,6.76-10.35,9.73-17.76,4.72-1.03-.7-3.04-2.27-6.01-4.72.66-6.42,3.06-11.79,7.19-16.11,1.87,1.55,2.81,2.32,2.81,2.32,0,0,7.97-20.42,14.37-32.25,5.55-10.23,21.07-2.26,14.61,12.7Z"/>
                <path id="Path-92" data-name="Path" class="cls-21" d="M650.87,378.18c-1.43,4.84-2.31,7.12-2.64,6.84-.33-.28-.21-3.19.38-8.73l2.26,1.9Z"/>
              </g>
              <g id="Head-3" data-name="Head">
                <path id="Path-93" data-name="Path" class="cls-102" d="M698.28,320.41v8.71l6.4-5.15s1.97-8.35,3.57-14.55c1-3.89,3.45-17.04-6.39-16.43-8.06-14.2-31.52-5.41-31.71,11.94-.22,20.87-.04,29-.04,29,13.27.76,20.74-1.16,28.18-13.53Z"/>
                <path id="Path-94" data-name="Path" class="cls-82" d="M704.81,337s-5.95-1.4-6.16-11.15c-.21-9.75-.06-13.08-.06-13.08l-13.11-.24s-.14,10.87-.14,14.8c0,9.56-7.03,10.34-7.03,10.34,0,0,1.2,7.89,13.08,8.55,9.27.52,13.43-9.23,13.43-9.23Z"/>
                <path id="Path-95" data-name="Path" class="cls-47" d="M701.65,307.9c5.85-.23,4.89,8.33-1.18,8.32,0,0-3.53,12.16-15.78,12.16-9.95,0-10.6-14.17-10.69-17-.1-3.01-.11-12.92-.11-12.92h27.98s-.23,9.44-.23,9.44Z"/>
                <path id="Path-96" data-name="Path" class="cls-102" d="M702.1,307.85c-2.42.4-2.13,2-2.79,1.86-3.35-.71-16.89.23-18.63-7.22-2.17,4.65-2.7,5.8-7.48,7.05v-13.63l30.22-2.9s-.47,14.7-1.32,14.85Z"/>
                <path id="Path-97" data-name="Path" class="cls-112" d="M687.06,320.21s-2.92,2.47-6.3.16"/>
                <path id="Path-98" data-name="Path" class="cls-109" d="M685.13,323.08c-.91.42-1.78.45-2.56.03"/>
                <path id="Path-8-3" data-name="Path-8" class="cls-104" d="M701.06,312.5c-.06-1.37.36-2.46,1.76-2.68"/>
              </g>
              <g id="Body-3" data-name="Body">
                <path id="Path-99" data-name="Path" class="cls-22" d="M703.49,336c-7.47,4.57-16.1,6.25-24.14,1.28-13.12,25.86-16.38,56.72-13.23,90.82,19.13,7.57,35.2,6.08,48.88-2.57l-11.52-89.53Z"/>
                <g id="RLeg-2" data-name="RLeg">
                  <path id="Path-100" data-name="Path" class="cls-83" d="M610.42,511.84s.16,12.47-10.12,17.13c-10.27,4.66-17.59,4.38-16.65,7.99.93,3.6,27.66,3.46,30.16.64,2.13-2.4,6.75-24.73,8.03-23.02l-11.41-2.74Z"/>
                  <path id="Path-101" data-name="Path" class="cls-73" d="M617.88,529.45c-1.57-1.13-2.9,5.4-7.18,3.58-4.28-1.82-.9-7.82-3.6-8.93-2.69-1.11-7.89,4.85-14.79,6.3-6.9,1.45-12.51,2.71-14.1,5.4-1.37,2.31,0,3.05,0,3.05,0,0,6.65,3.32,10.78,4.05,6,1.06,23.34,1.77,25.24-.17,1.17-1.19,4.44-12.71,3.65-13.28Z"/>
                  <path id="Path-102" data-name="Path" class="cls-46" d="M577.84,536.07c-1.3,2.12.75,3.23,1,3.35l.99.42c1.88.78,6.12,2.46,9.26,3.06,5.75,1.1,23.55,1.75,25.46-.14.34-.33.75-1.54,1.15-3.12l-1.22.13c-5.88.62-19,1.75-25.47.22-5.75-1.35-8.89-3.58-10.33-4.88-.35.3-.63.62-.84.96Z"/>
                  <path id="Path-103" data-name="Path" class="cls-80" d="M717.1,414.18c8.84,18.68,7.05,31.22-5.38,37.64-18.03,9.3-72-1.7-72-1.7,0,0,.96,7.76,0,14.69-2.52,18.09-14.5,48.22-17.03,52.01-3.51,5.24-14.18,1.29-14.38-3.07-.2-4.36,8.05-60.04,9.3-70.66,1.25-10.62,5.19-12.16,16.7-15.06,2.64-.67,33.91-8.44,36.78-8.21,16.41,1.3,31.75-.58,46.02-5.62Z"/>
                  <path id="Path-104" data-name="Path" class="cls-1" d="M702.56,448.92c-17.85,2-65.1-2.12-67-.25-1.81,1.79-1.51,32.9-5.57,50.91l.62-1.7c3.82-10.62,7.79-23.53,9.12-33.08.96-6.93,0-14.69,0-14.69l2.18.42c10.26,1.93,53.96,9.47,69.82,1.28,8.6-4.44,12.1-11.81,10.52-22.11-2.72,11.65-9.28,18.05-19.69,19.22Z"/>
                </g>
                <path id="Path-105" data-name="Path" class="cls-33" d="M703.16,336.02c-12.37,40.52-19.79,97.96,18.84,87.97-20.52-37.78,7.38-54.78,1.05-74.31-2.16-6.68-19.73-14.18-19.9-13.66Z"/>
                <path id="Path-106" data-name="Path" class="cls-21" d="M717.11,352.85c-13.98,2.11-2.46,26.52-7.07,30.19-4.61,3.68-12.65,4.07-13.51,6.32-1.74,4.51,6.67,15.91,25.24,34.19l.23.44c-17.87-32.91.99-50.06,1.97-66.83-2.07-3.25-4.36-4.68-6.86-4.31Z"/>
                <path id="Path-107" data-name="Path" class="cls-33" d="M680,337c-4.72,11.84-6.99,21.13-9.11,38.5-1.18,9.65-1.47,24.43-.88,44.34l-5.83,1.15c-2.78-30.76-3.71-48.12-2.78-52.08,2.34-9.97,3.92-15.79,7.01-24.91,1.7-5,11.58-7,11.58-7Z"/>
              </g>
              <g id="RArm-3" data-name="RArm">
                <path id="Path-108" data-name="Path" class="cls-58" d="M700.56,382.02s-7.62-7.63-10.25-8.51c-2.64-.88-17.08-1.95-16.99.05.11,2.14,9.41,2.02,10.27,3.07.86,1.05,2.05,9.26,5.3,10.07,3.24.81,9.97,3.2,9.97,3.2l29.92,15.46-3.19-15.46-25.03-7.88Z"/>
                <path id="Path-109" data-name="Path" class="cls-33" d="M723.48,349.73c9.08,12.81,16.83,32.32,19.8,39.93,2.97,7.61-.03,19.08-13.11,16.83-1.04-.18-2.4-.6-4.09-1.25-4.81-6.59-5.65-12.25-3.86-17.29,1.13.48,1.69.71,1.69.71,0,0-13-23.04-16.18-29.22-5.3-10.32,7.74-21,15.74-9.71Z"/>
                <path id="Path-110" data-name="Path" class="cls-21" d="M723.92,388.66c4.4,2.15,6.33,2.75,5.77,1.81-.55-.95-3.32-3.04-8.29-6.29l2.52,4.48Z"/>
              </g>
            </g>
            <g id="Group-3-2" data-name="Group-3">
              <path id="Rectangle-26" data-name="Rectangle" class="cls-10" d="M587.76,343.06l23.47-5.85c1.32-.33,2.66.47,2.99,1.79l8.52,34.18c.33,1.32-.47,2.66-1.79,2.99l-23.47,5.85c-1.32.33-2.66-.47-2.99-1.79l-8.52-34.18c-.33-1.32.47-2.66,1.79-2.99Z"/>
              <path id="Rectangle-27" data-name="Rectangle" class="cls-98" d="M588.68,343.61l23.47-5.85c1.32-.33,2.66.47,2.99,1.79l8.52,34.18c.33,1.32-.47,2.66-1.79,2.99l-23.47,5.85c-1.32.33-2.66-.47-2.99-1.79l-8.52-34.18c-.33-1.32.47-2.66,1.79-2.99Z"/>
              <path id="Rectangle-28" data-name="Rectangle" class="cls-78" d="M589.5,344.21l22.07-5.5c1.19-.3,2.39.43,2.69,1.62l7.7,30.9c.3,1.19-.43,2.39-1.62,2.69l-22.07,5.5c-1.19.3-2.39-.43-2.69-1.62l-7.7-30.9c-.3-1.19.43-2.39,1.62-2.69Z"/>
            </g>
            <g id="Group-26-10" data-name="Group-26">
              <g id="Group-25">
                <polygon id="Rectangle-29" data-name="Rectangle" class="cls-93" points="383.21 395.87 394.62 395.87 394.62 540.75 383.21 540.75 383.21 395.87"/>
                <polygon id="Rectangle-30" data-name="Rectangle" class="cls-52" points="271.38 400.63 361.56 400.63 361.56 427.54 286.4 427.54 286.4 540.75 271.38 540.75 271.38 400.63"/>
                <polygon id="Rectangle-31" data-name="Rectangle" class="cls-38" points="270.79 400.63 278.79 400.63 278.79 540.75 270.79 540.75 270.79 400.63"/>
              </g>
              <g id="Group-25-2" data-name="Group-25">
                <polygon id="Rectangle-32" data-name="Rectangle" class="cls-93" points="663.43 400.63 679.43 400.63 679.43 540.75 663.43 540.75 663.43 400.63"/>
                <polygon id="Rectangle-33" data-name="Rectangle" class="cls-38" points="663.43 395.87 673.43 395.87 673.43 540.75 663.43 540.75 663.43 395.87"/>
                <polygon id="Rectangle-34" data-name="Rectangle" class="cls-52" points="531.01 400.63 670.01 400.63 670.01 427.19 549.72 427.19 549.72 540.75 531.01 540.75 531.01 400.63"/>
                <polygon id="Rectangle-35" data-name="Rectangle" class="cls-38" points="282.59 395.87 531.48 395.87 531.48 436.1 282.59 436.1 282.59 395.87"/>
                <polygon id="Rectangle-36" data-name="Rectangle" class="cls-93" points="525.77 400.63 537.19 400.63 537.19 436.1 525.77 436.1 525.77 400.63"/>
                <polygon id="Rectangle-37" data-name="Rectangle" class="cls-38" points="531.04 400.63 540.04 400.63 540.04 540.75 531.04 540.75 531.04 400.63"/>
                <path id="Rectangle-38" data-name="Rectangle" class="cls-93" d="M539.62,395.87h145.13c3.95,0,7.14,3.2,7.14,7.14s-3.2,7.14-7.14,7.14h-145.13c-3.95,0-7.14-3.2-7.14-7.14s3.2-7.14,7.14-7.14Z"/>
                <polygon id="Rectangle-39" data-name="Rectangle" class="cls-93" points="279.74 398.73 528.63 398.73 528.63 413.02 279.74 413.02 279.74 398.73"/>
                <path id="Rectangle-40" data-name="Rectangle" class="cls-38" d="M265.95,395.87h276.46c3.95,0,7.14,3.2,7.14,7.14s-3.2,7.14-7.14,7.14h-276.46c-3.95,0-7.14-3.2-7.14-7.14s3.2-7.14,7.14-7.14Z"/>
              </g>
            </g>
            <g id="Men2.8">
              <g id="RLeg-3" data-name="RLeg">
                <path id="Path-111" data-name="Path" class="cls-54" d="M303.39,505.18l-7.9,25.64,16.57.6s-1.87-8.77.8-16.99c2.14-6.6,3.89-9.9,3.89-9.9l-13.36.65Z"/>
                <path id="Path-112" data-name="Path" class="cls-31" d="M311.62,524.38c4.22,3.91,8.35,6.58,12.4,8.03,6.08,2.17,8.41,2.2,8.84,3.01l.08.16c1.25,2.58.49,6.01-13.37,6.2-3.37.05-6.87-1.91-16.17-3.98l-.67,3.62c-5.2-.07-8.24-.89-9.11-2.46-1.31-2.35.92-13.95,2.45-14.17,1.54-.22,1.84,4.5,5.96,4.6,4.13.1,9.58-5.01,9.58-5.01Z"/>
                <path id="Combined-Shape-3" data-name="Combined-Shape" class="cls-65" d="M311.62,524.38c4.1,3.8,8.12,6.43,12.07,7.91-1.12,1.06-2.66,1.36-4.62.92-2.4-.55-5.48-3.11-9.22-7.7l.18.22c.98-.77,1.6-1.35,1.6-1.35Z"/>
                <path id="Path-113" data-name="Path" class="cls-74" d="M265.63,424.91c43.86,3.51,68.81,5.35,74.86,5.54,9.07.28,15.99,13.22,8.97,25.16-7.88,13.41-29.31,52-33.49,60.93-3.54,7.54-19.64,4.45-16.74-7.07,3.46-13.79,9.9-44.74,23.67-56.92,0,0-33.49,12.14-52.35.37-7.17-4.48-8.81-13.82-4.92-28.01Z"/>
                <path id="Path-114" data-name="Path" class="cls-72" d="M349.46,455.62l-1.03,1.76c-3.99,6.9-10.43,18.55-16.58,29.89l.32-1.04c4.76-15.14,12.15-32.97,15.31-38.41,1.11-1.91,2.62-3.85,4.52-5.83.81,4.15.19,8.97-2.55,13.63Z"/>
              </g>
              <g id="LLeg-4" data-name="LLeg">
                <path id="Path-115" data-name="Path" class="cls-54" d="M374.99,505.48s4.4,19.56,10.12,21.65c2.2.81-16.89,3.11-16.89,3.11l-4.79-18.76,11.56-5.99Z"/>
                <path id="Path-116" data-name="Path" class="cls-31" d="M365.46,523.63l-.32,16.51,6.58.05.07-3.71s5.13,3.08,8.6,4.16c4.67,1.46,23.13.69,25.22-1.53,2.09-2.23,2.13-5.79-2.15-6.22-4.28-.44-11.36-1.74-14.41-4.07-3.69-2.81-5.09-7.27-6.16-7.28-1.64,0-1.77,5.24-10.09,5.32-3.17.03-7.34-3.23-7.34-3.23Z"/>
                <path id="Path-117" data-name="Path" class="cls-65" d="M381.19,523.02s4.25,6.62,6.77,7.58c2.52.95,4.56-.12,4.56-.12,0,0-4.35-1.73-6.03-4.76-3.81-6.85-4.57-3.37-5.29-2.71Z"/>
                <path id="Path-118" data-name="Path" class="cls-74" d="M271.08,430.23c-.06,14.01,4.62,22.78,14.03,26.3,14.12,5.28,60.11,3.29,60.11,3.29,0,0,14.59,53.7,18.09,58.93,3.5,5.23,20.08,5.77,19.18-6.27-.9-12.05-7.37-56.77-8.63-67.37-1.25-10.61-5.18-13.15-16.66-15.05-4.04-.67-2.32-1.74-28.27-2.95-5.57-.26-14.92,1.82-23.51,2.77-5.73.63-17.18.75-34.35.35Z"/>
                <path id="Path-119" data-name="Path" class="cls-72" d="M316.98,430.68v-2.44l1.15-.17c4.18-.62,7.98-1.09,10.81-.96l2.98.15c22.83,1.15,21.41,2.17,25.28,2.81l.75.13c10.66,1.85,14.52,4.43,15.83,14.23l.37,2.95c1.73,13.59,7.5,53.79,8.35,65.11.07.91.04,1.74-.08,2.51l-3.36-16.93c-4.95-25.1-7.73-39.97-8.33-44.61l-.12-.96c-1.12-8.24-4.05-18.47-13.5-17.8l-.82.07c-6.65.51-19.27-.77-37.85-3.83l-1.46-.24Z"/>
                <ellipse id="Oval-10" data-name="Oval" class="cls-97" cx="384.32" cy="446.91" rx="6.61" ry="3.78" transform="translate(-137.59 720.85) rotate(-77)"/>
              </g>
              <g id="RArm-4" data-name="RArm">
                <path id="Path-120" data-name="Path" class="cls-43" d="M281.26,402.31s15.39,3.56,15.23,4.96c-.15,1.41-6.93,1.62-6.93,1.62,0,0,12.53,8.09,11.53,9.67-1,1.58-9.16,3.36-12.55,2.08-3.39-1.27-12.18-10.54-12.18-10.54l4.9-7.8Z"/>
                <path id="Path-121" data-name="Path" class="cls-33" d="M281.4,356.72c-5.16,6.36-22.73,25.8-22.73,25.8,0,0,17.58,12.52,22,15.17,7.26,4.34-.12,15.86-5.45,14.58-7.21-1.74-25.42-14.3-33.98-19.38s-5.28-13.29,1.05-20.78c4.86-5.75,15.43-17.54,22.87-27.88,7.4-10.29,26.24.16,16.23,12.51Z"/>
                <path id="Path-15" class="cls-21" d="M258.67,382.51c-3.3,3.18-4.78,4.89-4.43,5.14.34.25,2.5-.98,6.48-3.67l-2.04-1.47Z"/>
              </g>
              <g id="Head-4" data-name="Head">
                <path id="Path-122" data-name="Path" class="cls-23" d="M312.1,310.01c4.32.47,4.02,8.08-1.25,8.48-1.08,7.33-4.91,10.83-9.59,11.23l.26,11.09h-20.69s5.82-7.85,5.53-18.58c-.29-10.73.19-20.81.19-20.81l26.79.48-1.26,8.1Z"/>
                <path id="Path-123" data-name="Path" class="cls-32" d="M303.63,289.31c15.94,4.02,9.36,21.01,9.36,21.01-4.82-.66-9.45,5.19-11.21,10.92-5.08,5.22-11.66,5.21-16.04,2.17-4.01-12.42-5.36-20.69-4.05-24.82,1.97-6.2,7.41-12.94,21.93-9.28Z"/>
              </g>
              <g id="Body-4" data-name="Body">
                <path id="Path-124" data-name="Path" class="cls-33" d="M265.96,343.29c-1.43,2.44-2.46,12.25,0,51.12,1.27,20.13-4.14,39.97-2.74,48.7.93,5.82,4.6,9.08,11.01,9.78l5.6-18.23,2.64,18.23c26.49-2.48,40.89-6.73,43.22-12.76,3.49-9.06-.89-30.38-1.93-50.44-1.05-20.15-.26-40.83-2.19-43.96-3.84-6.26-13.74-9.18-19.87-10.11-7.79-1.19-17.85-1.23-23.83.66-5.98,1.9-10.47,4.58-11.9,7.01Z"/>
                <path id="Path-125" data-name="Path" class="cls-21" d="M306.39,357.13c3.14,23.13,7.33,39.37,12.58,48.7,2.17,3.86,4.38,5.45,6.62,4.77l-.53-5.13c-.53-5.19-1.03-10.53-1.31-15.79-.19-3.67-.32-7.35-.42-10.95l-16.94-21.61Z"/>
                <path id="Path-126" data-name="Path" class="cls-84" d="M277.86,336.27c-.36.11-.71.23-1.05.36,8.58,3.74,22.76,3.24,30.47.19-2.01-.57-3.93-.96-5.59-1.21-7.79-1.19-17.85-1.23-23.83.66Z"/>
              </g>
              <g id="LArm-4" data-name="LArm">
                <path id="Path-127" data-name="Path" class="cls-69" d="M383.16,377.17s12.78-8.53,15.04-10.25c2.25-1.71,5.08-14.65,3.33-16.47-.85-.88-7.24,5.03-8.38,5.83-1.13.78-6.93,4.28-6.93,4.28,0,0,1.64-9.91.23-10.71-1.05-.58-3.14,1.97-3.42,4.66-.28,2.69-3.19,6.21-3.56,10.3-.17,1.79-1.93,5.2-1.93,5.2l5.62,7.15Z"/>
                <path id="Path-128" data-name="Path" class="cls-33" d="M307.02,360.8c4.9,10.18,13.22,25.06,17.79,33.79,5.41,10.33,11.85,14.7,24.85,7.04,10.88-6.42,26.58-16.74,34.69-22.35,7.55-5.22-1.37-18.11-8.5-13.75-9.46,5.77-33.65,17.2-33.65,17.2,0,0-12.45-22.74-17.62-33.65-6.57-13.87-27.04-7.97-17.56,11.73Z"/>
                <path id="Path-129" data-name="Path" class="cls-21" d="M342.2,382.73c1.52,5.34,2.46,7.91,2.81,7.7.36-.21.23-3.16-.38-8.85l-2.44,1.15Z"/>
              </g>
            </g>
            <g id="Chair8">
              <polygon id="Path-130" data-name="Path" class="cls-20" points="291.77 461.22 280.33 542.18 286.33 542.1 297.77 462.07 291.77 461.22"/>
              <polygon id="Path-131" data-name="Path" class="cls-41" points="329.93 461.22 341.37 542.18 335.37 542.1 323.93 462.07 329.93 461.22"/>
              <polygon id="Path-132" data-name="Path" class="cls-20" points="256.88 461.22 245.44 542.18 251.44 542.1 262.88 462.07 256.88 461.22"/>
              <path id="Path-133" data-name="Path" class="cls-20" d="M343.75,456.54c0-5.22-4.23-9.45-9.45-9.45h-37.76c-5.72,0-10.5-4.35-11.04-10.05l-6.04-64.19c-.54-5.7-5.32-10.05-11.04-10.05h-23.7c-6.12,0-11.09,4.96-11.09,11.09,0,.28.01.57.03.85l6.22,81.01c.44,5.78,5.26,10.24,11.06,10.24h83.35c5.22,0,9.45-4.23,9.45-9.45Z"/>
              <path id="Combined-Shape-4" data-name="Combined-Shape" class="cls-41" d="M274.25,364.36l6.31,81.86c.45,5.78,5.26,10.24,11.06,10.24h52.14c0-.06,0-.12,0-.18,0-5.2-4.22-9.42-9.42-9.42h-37.65c-5.72,0-10.5-4.35-11.04-10.05l-6.03-63.96c-.34-3.64-2.42-6.73-5.36-8.48Z"/>
            </g>
            <g id="Front-Laptop3">
              <path id="Rectangle-41" data-name="Rectangle" class="cls-49" d="M557.24,393.8h-84.14c-.41,0-.75.33-.75.75v1.1c0,.41.33.75.75.75h84.14c.41,0,.75-.33.75-.75v-1.1c0-.41-.33-.75-.75-.75Z"/>
              <path id="Rectangle-42" data-name="Rectangle" class="cls-98" d="M557.24,393.8h-32.33c-.41,0-.75.33-.75.75v1.1c0,.41.33.75.75.75h32.33c.41,0,.75-.33.75-.75v-1.1c0-.41-.33-.75-.75-.75Z"/>
              <path id="Rectangle-43" data-name="Rectangle" class="cls-98" d="M560.52,354.3h-55.81c-1.81,0-3.34,1.35-3.57,3.14l-4.15,32.41c-.25,1.97,1.14,3.78,3.11,4.03.15.02.3.03.46.03h55.81c1.81,0,3.34-1.35,3.57-3.14l4.15-32.41c.25-1.97-1.14-3.78-3.11-4.03-.15-.02-.3-.03-.46-.03Z"/>
              <path id="Rectangle-44" data-name="Rectangle" class="cls-96" d="M558.82,354.3h-54.63c-1.81,0-3.34,1.35-3.57,3.14l-4.15,32.41c-.25,1.97,1.14,3.78,3.11,4.03.15.02.3.03.46.03h54.63c1.81,0,3.34-1.35,3.57-3.14l4.15-32.41c.25-1.97-1.14-3.78-3.11-4.03-.15-.02-.3-.03-.46-.03Z"/>
              <path id="Rectangle-45" data-name="Rectangle" class="cls-78" d="M557.23,356.17h-51.76c-1.63,0-3.01,1.21-3.21,2.83l-3.74,29.24c-.23,1.77,1.03,3.4,2.8,3.62.14.02.27.03.41.03h51.76c1.63,0,3.01-1.21,3.21-2.83l3.74-29.24c.23-1.77-1.03-3.4-2.8-3.62-.14-.02-.27-.03-.41-.03Z"/>
            </g>
            <g id="Wom3.8">
              <g id="RArm-5" data-name="RArm">
                <path id="Path-134" data-name="Path" class="cls-81" d="M423.65,404.22s13.6,3.17,13.46,4.42c-.14,1.25-6.12,1.44-6.12,1.44,0,0,11.07,7.2,10.19,8.61-.88,1.41-8.1,2.99-11.09,1.85-3-1.13-10.76-9.38-10.76-9.38l-21.79-11.7,7.28-9.6,18.83,14.36Z"/>
                <path id="Path-135" data-name="Path" class="cls-66" d="M423.77,363.62c-4.56,5.67-20.09,22.97-20.09,22.97,0,0,1.02.77,3.07,2.3l-9.97,12.1c-4.25-2.6-7.07-4.32-8.49-5.17-7.56-4.53-4.67-11.83.93-18.5,4.3-5.12,13.64-15.62,20.21-24.83,6.54-9.17,23.19.14,14.35,11.14Z"/>
                <path id="Path-15-2" data-name="Path-15" class="cls-21" d="M403.68,386.59c-2.92,2.83-4.22,4.36-3.92,4.57.3.22,2.21-.87,5.72-3.27l-1.81-1.31Z"/>
                <polygon id="Path-76" class="cls-3" points="406.13 387.62 393.13 400.49 399.63 404.74 408.56 389.46 406.13 387.62"/>
              </g>
              <g id="LLeg-5" data-name="LLeg">
                <path id="Path-136" data-name="Path" class="cls-35" d="M447.64,503.23l-7.03,22.65,11.82.53s-1.67-7.75.71-15.01c1.91-5.83,3.46-8.74,3.46-8.74l-8.96.57Z"/>
                <path id="Path-137" data-name="Path" class="cls-31" d="M452.52,519.78s-.25,5.77,1.77,7.59c2.01,1.82,12.69,8.55,13.59,9.9.89,1.36-.42,3.01-.42,3.01,0,0-10.9,1.71-16.05-.93-3.71-1.91-6.37-3.46-6.37-3.46l-1.14,2.93-5.95-.86s-1.84-4.65-1.05-6.96c.79-2.31,4.86-13.12,4.86-13.12,0,0,3.59.63,10.76,1.89Z"/>
                <path id="Path-138" data-name="Path" class="cls-29" d="M413.25,426.03c8.89.87,52.67,11.3,61.69,13.15,9.02,1.85,16.64,11.87,9.76,23.48-5.15,8.68-15,26.52-29.55,53.5-.13.03-.27.09-.4.09-4.44,0-8.4-.61-12.21-3.26,3.86-28.3,10.29-46.39,19.27-54.27,0,0-34.82,12.52-52.23-1.14-10.27-8.06-6.13-32.5,3.67-31.54Z"/>
                <path id="Combined-Shape-5" data-name="Combined-Shape" class="cls-72" d="M484.7,462.65c-1.4,2.35-3.19,5.49-5.22,9.1l2.33-29.31c5.25,4.24,7.86,11.81,2.89,20.21Z"/>
              </g>
              <g id="RLeg-4" data-name="RLeg">
                <path id="Path-139" data-name="Path" class="cls-62" d="M513.1,501.44s3.88,17.27,8.92,19.12c1.94.71-11.99,2.74-11.99,2.74l-4.23-16.57,7.29-5.29Z"/>
                <path id="Path-140" data-name="Path" class="cls-31" d="M508.26,518.54l3.68,21.62,6.38-1.01-.79-5.35s2.8,4.66,5.92,4.46c3.13-.2,18.77-2.56,18.77-2.56,0,0,.35-5.18-6.84-6.36-5.98-.98-16.19-12.54-16.19-12.54l-10.92,1.73Z"/>
                <path id="Path-141" data-name="Path" class="cls-63" d="M420.71,423.17c-8.55,18.12-6.82,30.29,5.2,36.51,17.44,9.03,63.84-2.62,63.84-2.62,0,0-.93,7.53,0,14.25,2.44,17.55,14.42,39.13,15.51,42.69.55,1.79,13.91-.86,13.91-2.98s-6.82-50.49-8.03-60.79c-1.21-10.3-5.02-11.8-16.15-14.61-2.56-.65-35.7-8.19-38.47-7.97-15.87,1.26-27.81-.24-35.81-4.48Z"/>
                <path id="Path-142" data-name="Path" class="cls-72" d="M456.51,427.66c2.77-.22,35.92,7.32,38.47,7.97l1.83.47c9.5,2.48,13.01,4.34,14.24,13.46l.33,2.62c1,7.64,3.71,25.6,5.85,40.56-2.42-5.5-4.42-11.6-6-18.3-3.69-15.62-2.9-28.44-3.89-30.69-.99-2.25-49.48-9.42-57.81-10.9-3.63-.64-5.67-2.24-6.14-4.79,4.03.11,8.4-.02,13.12-.39Z"/>
              </g>
              <g id="Head-5" data-name="Head">
                <path id="Path-143" data-name="Path" class="cls-89" d="M450.2,318.88c3.85.42,3.58,7.2-1.11,7.56-.96,6.54-4.38,9.65-8.54,10.01l.23,9.89h-18.43s5.19-7,4.93-16.56c-.26-9.56.17-18.54.17-18.54l23.87.43-1.12,7.22Z"/>
                <path id="Path-144" data-name="Path" class="cls-88" d="M451.04,319.39c-4.49-1.78-7.8,5.87-11.23,11.19s-12.33,4.41-13.55,0c-4.64-9.66-8.64-22.8-3.22-23.88.76-13.97,37.28-10.67,28.01,12.69Z"/>
                <path id="Combined-Shape-6" data-name="Combined-Shape" class="cls-53" d="M425.71,301.4c-1.56,1.33-2.56,3.1-2.68,5.29-5.42,1.08-1.42,14.22,3.22,23.88,1.14,4.1,8.91,5.17,12.75,1.03,3.51-10.52,2.01-22.27-5.08-30.2h-8.22Z"/>
                <ellipse id="Oval-11" data-name="Oval" class="cls-101" cx="430.87" cy="301.41" rx="4.4" ry="4.41"/>
              </g>
              <g id="Body-5" data-name="Body">
                <path id="Path-145" data-name="Path" class="cls-79" d="M454.71,348c4.08,5.99,10.88,26.3,11.27,30.87.43,5.27-5.23,13.67-5.32,21.3-.08,7.63,4.22,26.74,2.93,28.89-1.28,2.15-43.9,14.56-46.3,13.54-2.4-1.02-10.69-12.02-8.79-16.49,1.9-4.47,9.77-14.61,8.87-20.7-.89-6.09-6.06-28.57-8.62-36.22-2.56-7.65-1.7-15.69,3.07-18.98,2.36-1.63,8.66-6.26,19.87-6.24,11.22.02,22.71,3.57,23.03,4.03Z"/>
                <path id="Path-146" data-name="Path" class="cls-21" d="M463.86,373.97l-19.55-14.05v2.57c.08,15.85,1.08,24.24,17.67,50.21l-.38-2.65c-.54-3.84-.96-7.44-.93-9.87.06-4.82,2.33-9.94,3.9-14.38l-.7-11.83Z"/>
                <path id="Path-68" class="cls-94" d="M442.05,343.53c.31,1.72-.22,2.57-1.59,2.57-2.07,0-15.93.46-17.8-.36-1.25-.54-1.69-1.28-1.31-2.22h20.71Z"/>
              </g>
              <g id="LArm-5" data-name="LArm">
                <path id="Path-147" data-name="Path" class="cls-99" d="M511.13,378.86s11.29-7.53,13.28-9.05c1.99-1.51,4.48-12.93,2.94-14.53-.75-.78-6.39,4.44-7.4,5.14-1,.69-6.12,3.78-6.12,3.78,0,0,1.45-8.74.2-9.45-.92-.51-2.77,1.74-3.01,4.12-.25,2.38-2.81,5.48-3.14,9.09-.15,1.58-.73,3.62-.73,3.62l-31.32,13.45,3.28,14.62,32.03-20.79Z"/>
                <path id="Path-148" data-name="Path" class="cls-66" d="M443.91,364.42c4.32,8.98,11.67,22.12,15.7,29.82,4.77,9.11,10.46,12.97,21.94,6.21.9-.53,2.31-1.38,4.25-2.56l-7.1-15.77c-2.49,1.1-3.73,1.65-3.73,1.65,0,0-10.99-20.07-15.55-29.7-5.8-12.24-23.88-7.04-15.51,10.35Z"/>
                <path id="Path-149" data-name="Path" class="cls-21" d="M474.97,383.77c1.34,4.72,2.17,6.98,2.48,6.8.32-.19.21-2.79-.33-7.81l-2.15,1.01Z"/>
                <polygon id="Path-75" class="cls-3" points="478.59 381.42 483.54 401.06 490.9 397.08 481.24 379.89 478.59 381.42"/>
              </g>
              <path id="Path-150" data-name="Path" class="cls-88" d="M431.34,298.15s-4.15-5.31-8.94-3.92c-4.79,1.39-9.12,9.93-7.07,17.96,2.05,8.03.36,12.61-2.12,18.02-6.67,14.55,16.43,23.79,16.43,23.79-1.2-7.19-.63-12.95,1.7-17.29,3.61-6.71,5.66-15.31,5.66-20.57,0-9.15-5.66-17.99-5.66-17.99Z"/>
            </g>
            <g id="Chair8-2" data-name="Chair8">
              <polygon id="Path-151" data-name="Path" class="cls-41" points="430.66 461.22 442.1 542.18 436.1 542.1 424.66 462.07 430.66 461.22"/>
              <polygon id="Path-152" data-name="Path" class="cls-41" points="463.96 461.22 475.4 542.18 469.4 542.1 457.96 462.07 463.96 461.22"/>
              <polygon id="Path-153" data-name="Path" class="cls-20" points="390.91 461.22 379.47 542.18 385.47 542.1 396.91 462.07 390.91 461.22"/>
              <path id="Path-154" data-name="Path" class="cls-20" d="M477.78,456.54c0-5.22-4.23-9.45-9.45-9.45h-37.76c-5.72,0-10.5-4.35-11.04-10.05l-6.04-64.19c-.54-5.7-5.32-10.05-11.04-10.05h-23.7c-6.12,0-11.09,4.96-11.09,11.09,0,.28.01.57.03.85l6.22,81.01c.44,5.78,5.26,10.24,11.06,10.24h83.35c5.22,0,9.45-4.23,9.45-9.45Z"/>
              <path id="Combined-Shape-7" data-name="Combined-Shape" class="cls-41" d="M408.28,364.36l6.31,81.86c.45,5.78,5.26,10.24,11.06,10.24h52.14c0-.06,0-.12,0-.18,0-5.2-4.22-9.42-9.42-9.42h-37.65c-5.72,0-10.5-4.35-11.04-10.05l-6.03-63.96c-.34-3.64-2.42-6.73-5.36-8.48Z"/>
            </g>
          </g>
        </g>
      </g>
    </g>
  </g>
</svg>